<svg xmlns="http://www.w3.org/2000/svg" viewBox="60 100 600 220" width="600" height="220">
<defs>
<filter id="dry" x="-5%" y="-5%" width="110%" height="110%">
  <feTurbulence type="fractalNoise" baseFrequency="0.9" numOctaves="2" seed="3" result="n"/>
  <feDisplacementMap in="SourceGraphic" in2="n" scale="2.2" xChannelSelector="R" yChannelSelector="G"/>
</filter>
<filter id="grain" x="0" y="0" width="100%" height="100%">
  <feTurbulence type="fractalNoise" baseFrequency="0.75" numOctaves="3" seed="11" stitchTiles="stitch"/>
  <feColorMatrix type="saturate" values="0"/>
  <feComponentTransfer><feFuncA type="linear" slope="0.18"/></feComponentTransfer>
</filter>
<filter id="bleed" x="-5%" y="-5%" width="110%" height="110%">
  <feMorphology operator="dilate" radius="0.6"/>
  <feGaussianBlur stdDeviation="0.35"/>
</filter>
</defs>

<g filter="url(#dry)"><path d="M321.0 295.7 L320.0 295.2 L320.8 293.5 L321.2 293.3 L321.3 292.6 L321.0 293.2 L321.5 292.0 L322.1 291.9 L321.4 290.5 L322.0 288.8 L322.2 288.2 L321.9 287.6 L321.8 287.0 L323.0 286.1 L322.0 286.1 L323.3 285.5 L323.0 284.6 L322.7 284.6 L323.5 285.0 L324.7 284.3 L324.8 283.0 L324.9 282.6 L324.9 281.8 L325.2 281.0 L325.6 280.3 L324.6 280.5 L325.1 279.7 L325.5 279.0 L326.4 278.2 L326.4 277.4 L326.3 278.0 L327.2 277.7 L327.1 276.6 L327.4 275.8 L328.7 275.1 L328.0 274.2 L328.9 273.9 L328.5 275.3 L328.2 273.8 L329.5 274.0 L330.1 274.0 L329.1 273.6 L330.3 273.9 L330.7 272.9 L331.1 273.4 L331.6 273.9 L332.3 272.4 L332.9 273.8 L332.6 273.1 L332.5 273.2 L333.5 272.5 L333.5 271.9 L334.8 271.9 L335.5 269.9 L334.9 271.1 L336.4 268.9 L336.5 269.5 L335.6 268.4 L336.0 269.4 L338.1 268.7 L336.8 268.4 L338.0 267.6 L337.6 266.9 L337.9 267.5 L338.7 266.6 L339.4 266.7 L340.1 267.8 L339.9 266.6 L341.1 267.3 L340.9 266.4 L341.9 266.3 L342.7 266.8 L343.4 266.7 L343.9 266.6 L344.3 265.2 L343.8 265.4 L345.5 263.9 L344.9 264.4 L345.8 264.1 L346.4 263.6 L347.9 262.7 L347.0 262.3 L347.3 263.6 L348.8 263.0 L348.5 262.4 L349.9 262.7 L349.1 262.6 L350.5 262.7 L350.8 262.8 L350.2 262.7 L351.2 261.7 L351.0 263.5 L352.3 263.5 L352.4 261.8 L352.8 263.3 L354.5 262.3 L354.8 262.1 L355.5 263.0 L356.6 262.4 L356.3 262.8 L357.4 262.4 L358.9 262.2 L357.9 261.6 L359.8 261.2 L360.2 261.0 L360.8 260.3 L361.2 261.5 L360.4 259.9 L361.8 260.3 L361.1 259.7 L362.3 261.5 L362.1 260.1 L363.2 261.2 L363.1 261.9 L363.4 262.5 L364.3 262.6 L365.2 261.4 L364.6 262.6 L365.2 262.9 L366.8 263.4 L368.0 263.4 L367.4 262.7 L368.9 263.1 L369.0 264.3 L369.2 263.3 L369.8 264.6 L370.8 265.0 L371.6 263.8 L372.1 263.3 L371.8 263.7 L372.8 264.2 L372.2 265.2 L374.0 264.0 L373.9 264.6 L374.6 265.3 L374.9 263.9 L376.3 265.5 L375.2 264.4 L377.0 266.1 L376.8 264.9 L377.1 265.4 L377.7 266.4 L377.4 266.0 L378.8 264.8 L378.9 266.0 L378.6 265.1 L379.5 265.6 L380.7 266.8 L380.1 267.3 L380.4 267.8 L381.0 266.9 L381.4 267.7 L382.1 268.5 L382.8 268.6 L383.5 268.5 L384.5 269.3 L384.7 269.2 L385.4 269.6 L384.7 271.2 L386.0 270.2 L386.0 270.8 L386.1 270.9 L386.5 272.0 L386.6 271.5 L387.0 272.6 L388.3 273.7 L387.7 273.7 L389.2 273.7 L388.2 274.4 L388.6 275.4 L390.4 275.8 L390.7 274.6 L390.3 275.5 L390.5 275.1 L390.5 275.0 L391.2 275.9 L391.9 276.3 L392.3 275.9 L391.6 277.0 L392.1 276.7 L393.1 277.5 L392.5 278.5 L393.2 278.0 L393.0 278.9 L393.6 279.3 L395.0 279.6 L394.9 280.2 L394.5 281.2 L395.2 281.6 L396.0 281.7 L395.8 282.9 L395.7 284.4 L396.7 284.3 L396.4 285.0 L397.2 285.4 L396.4 286.7 L396.1 286.7 L396.8 287.4 L397.3 288.4 L398.3 289.0 L398.1 288.7 L397.9 289.4 L398.6 289.8 L398.7 289.7 L397.5 291.3 L398.4 292.3 L398.0 292.9 L397.9 291.9 L398.6 292.6 L398.7 293.7 L398.7 293.0 L399.3 293.9 L400.1 294.3 L399.6 294.8 L400.2 295.4 L398.8 295.3 L399.0 296.1 L399.5 296.0 L399.2 295.2 L400.7 295.3 L400.2 294.6 L400.7 294.1 L399.9 293.8 L399.3 292.9 L399.4 293.5 L399.4 292.4 L398.6 291.7 L398.8 292.7 L399.2 292.1 L398.2 291.1 L399.4 289.5 L399.4 289.6 L398.9 289.1 L399.0 288.5 L399.2 288.7 L398.3 288.1 L397.7 287.2 L397.1 286.4 L397.4 286.3 L398.4 285.0 L397.6 284.6 L397.7 283.9 L396.8 284.0 L397.0 282.4 L397.1 281.3 L396.4 281.2 L395.9 280.7 L396.1 279.7 L396.2 279.1 L395.1 278.6 L394.3 278.3 L394.6 277.3 L393.9 277.7 L394.4 276.6 L393.2 275.8 L392.7 275.9 L393.3 274.7 L393.0 274.9 L392.1 274.6 L391.3 273.7 L391.3 273.7 L391.2 274.1 L391.6 273.2 L391.5 274.3 L389.9 273.8 L389.3 273.2 L390.6 272.2 L389.2 272.3 L389.8 272.3 L388.4 271.4 L387.9 270.3 L387.9 270.8 L387.7 269.4 L387.5 269.5 L387.6 268.7 L386.2 269.8 L386.8 268.1 L386.2 267.5 L386.1 267.6 L385.0 266.8 L384.1 267.1 L383.6 266.7 L383.0 265.7 L382.4 265.1 L381.8 265.9 L381.6 265.2 L381.9 265.0 L380.7 263.7 L379.7 263.1 L380.1 263.6 L379.8 262.5 L378.2 263.6 L378.4 263.8 L377.7 262.9 L377.3 262.2 L377.5 263.4 L375.6 261.8 L376.8 262.6 L375.3 261.6 L375.0 263.0 L374.4 261.9 L374.6 261.4 L372.8 262.5 L373.4 261.7 L372.4 260.7 L372.6 260.9 L372.2 261.0 L371.4 262.2 L370.4 261.8 L369.9 260.3 L369.7 261.8 L369.7 260.2 L368.2 260.2 L368.8 261.0 L367.9 261.0 L366.6 260.1 L365.9 260.2 L366.7 258.8 L365.9 259.9 L364.9 259.9 L364.6 259.0 L364.6 258.3 L363.1 257.6 L363.2 258.6 L361.6 257.1 L361.9 257.4 L360.0 257.0 L360.4 258.3 L359.8 257.3 L359.0 258.1 L358.5 258.6 L356.6 259.0 L357.6 259.6 L356.2 260.0 L355.2 260.4 L355.6 259.7 L354.7 260.0 L354.4 259.6 L354.3 259.8 L352.9 260.8 L352.7 259.4 L352.8 260.5 L351.5 260.6 L351.6 259.3 L350.6 259.9 L351.1 259.9 L350.6 260.2 L349.0 259.8 L349.5 260.4 L347.8 259.8 L347.8 260.5 L346.0 261.1 L345.6 260.1 L346.4 260.6 L344.8 261.4 L344.2 262.0 L343.4 262.5 L344.2 262.2 L342.5 263.7 L343.1 263.4 L342.7 264.7 L342.2 264.5 L341.6 264.4 L341.1 264.2 L340.2 264.2 L340.5 265.3 L339.3 264.5 L339.6 265.8 L338.7 264.6 L338.1 264.7 L337.1 265.5 L336.7 264.9 L337.1 266.0 L335.7 266.7 L336.7 267.0 L334.7 268.0 L334.2 266.9 L335.2 268.3 L334.9 267.6 L333.3 269.7 L334.2 268.7 L333.6 270.8 L332.2 270.6 L332.0 271.1 L331.2 271.7 L331.4 271.6 L332.0 272.2 L331.6 271.0 L330.8 272.1 L330.6 272.0 L330.2 271.4 L329.9 272.4 L328.5 272.1 L329.4 272.4 L328.6 272.5 L327.2 272.3 L327.4 274.0 L327.8 273.0 L326.9 273.4 L327.4 274.2 L326.2 275.1 L325.7 275.8 L326.0 277.1 L325.1 277.4 L325.1 276.8 L325.0 277.6 L324.1 278.5 L324.0 279.2 L323.5 280.0 L324.4 279.8 L324.2 280.6 L323.8 281.4 L323.7 282.1 L323.7 282.6 L323.7 283.9 L322.4 284.7 L321.6 284.2 L322.1 284.3 L322.2 285.2 L321.0 285.8 L322.0 285.8 L320.9 286.8 L321.1 287.4 L321.3 288.0 L321.3 288.7 L320.8 290.3 L321.4 291.7 L320.8 291.9 L320.4 293.1 L320.7 292.4 L320.7 293.2 L320.3 293.4 L319.6 295.2 L320.7 295.6 Z" fill="#141311" opacity="0.9"/><path d="M287.3 288.7 L287.9 288.9 L288.3 287.8 L288.0 286.3 L287.6 285.0 L287.5 284.4 L288.8 284.1 L289.0 282.6 L288.7 281.3 L289.9 280.7 L289.6 279.5 L288.8 277.7 L289.9 276.6 L289.9 277.4 L289.8 275.5 L290.3 274.3 L292.1 273.4 L291.0 273.1 L292.2 272.0 L292.6 271.7 L293.0 269.5 L294.0 268.3 L293.2 267.7 L294.5 267.3 L295.0 265.9 L295.5 266.1 L294.8 264.6 L295.4 264.1 L295.6 263.2 L296.6 262.5 L296.3 262.3 L297.6 261.4 L298.3 261.0 L298.4 260.7 L298.7 260.6 L300.4 259.0 L299.6 258.5 L301.0 258.0 L300.6 257.6 L302.3 256.5 L301.7 255.6 L302.4 253.6 L304.2 254.0 L304.6 252.3 L304.1 252.2 L306.5 250.8 L306.0 251.2 L307.5 250.0 L306.8 249.7 L308.5 247.7 L308.8 247.5 L308.7 247.0 L309.8 247.8 L310.4 246.2 L311.1 246.9 L312.3 246.1 L312.4 245.0 L314.3 245.3 L313.6 244.9 L314.2 243.6 L314.9 242.5 L316.3 243.4 L316.9 241.6 L318.3 242.0 L319.4 240.4 L319.3 240.9 L321.3 241.1 L321.5 239.8 L322.1 239.9 L322.9 239.1 L324.7 238.7 L325.4 238.6 L326.2 236.6 L325.8 235.7 L327.6 235.5 L328.3 234.5 L328.7 234.1 L329.2 234.4 L330.5 232.7 L331.1 232.3 L331.6 230.8 L333.7 230.8 L334.5 229.8 L335.1 229.6 L335.6 229.2 L335.5 230.2 L336.7 228.6 L338.0 229.8 L338.1 229.4 L339.2 228.1 L341.3 228.5 L341.7 228.5 L341.9 229.0 L342.5 227.7 L344.9 227.8 L344.2 229.0 L346.3 229.2 L347.3 227.3 L346.9 228.0 L348.6 228.6 L350.3 227.0 L351.0 227.3 L350.8 227.1 L351.9 227.9 L352.9 228.9 L354.3 228.6 L355.9 228.6 L356.8 228.1 L356.8 228.1 L358.5 228.4 L359.8 227.4 L360.7 228.4 L361.1 228.1 L361.4 226.8 L362.1 227.4 L363.1 227.8 L363.9 227.3 L365.4 227.6 L365.5 226.4 L366.6 228.0 L368.2 227.6 L369.6 228.2 L369.3 227.4 L370.8 228.5 L372.3 227.6 L372.9 228.6 L373.5 228.5 L373.8 228.3 L376.1 228.4 L376.5 230.1 L376.6 230.0 L378.6 230.3 L378.9 230.2 L379.5 231.4 L380.4 230.8 L382.3 230.4 L383.8 231.6 L384.7 231.8 L385.3 230.4 L385.4 231.8 L385.8 231.9 L387.7 231.3 L388.0 231.7 L389.5 231.6 L389.6 231.2 L391.0 232.0 L391.4 231.9 L392.0 232.0 L392.7 233.1 L393.7 234.1 L394.2 234.4 L394.7 234.4 L395.7 235.2 L396.2 235.7 L397.1 236.5 L398.8 237.3 L399.8 236.8 L399.2 238.3 L401.6 238.1 L401.4 238.3 L401.6 240.0 L403.3 240.7 L404.0 240.4 L405.3 242.4 L405.4 243.0 L405.2 242.9 L405.9 244.2 L407.1 244.9 L408.1 244.9 L409.3 245.4 L409.9 245.7 L409.5 247.2 L410.4 247.5 L410.9 248.7 L412.6 248.8 L412.4 248.4 L414.7 249.9 L414.6 250.3 L415.4 251.6 L415.6 252.2 L415.8 252.1 L417.3 253.4 L417.0 253.9 L417.4 253.9 L419.4 253.9 L418.9 254.7 L419.3 255.6 L420.1 256.9 L420.2 258.5 L420.5 258.5 L421.5 260.2 L422.3 260.9 L422.2 260.6 L422.9 262.6 L424.0 263.0 L424.8 263.7 L423.9 263.7 L424.5 264.4 L425.2 266.7 L425.1 266.9 L426.1 268.8 L426.0 268.6 L428.1 269.2 L428.1 270.6 L428.4 272.0 L428.3 272.7 L428.3 274.4 L428.4 274.6 L428.9 275.6 L430.5 276.5 L430.3 277.9 L429.8 279.4 L430.2 279.5 L430.8 281.7 L431.9 282.3 L430.6 281.8 L432.5 282.9 L432.9 282.8 L431.1 281.7 L432.4 282.1 L431.4 281.5 L430.9 279.3 L430.4 279.2 L430.9 277.7 L431.3 276.2 L429.6 275.4 L429.1 274.4 L429.1 274.1 L429.1 272.4 L429.2 271.7 L428.9 270.3 L429.1 268.8 L427.1 268.1 L427.1 268.4 L426.2 266.4 L426.2 266.3 L425.6 263.9 L424.9 263.2 L426.0 263.1 L425.2 262.3 L424.2 261.9 L423.5 259.8 L423.7 260.1 L422.8 259.4 L421.7 257.7 L421.4 257.7 L421.4 256.0 L420.7 254.6 L420.3 253.7 L420.6 253.0 L418.7 252.9 L418.4 252.8 L418.5 252.4 L417.2 250.8 L417.0 250.8 L416.5 250.3 L415.7 249.0 L415.8 248.6 L413.6 247.0 L413.8 247.3 L412.2 247.1 L411.6 246.0 L410.8 245.7 L411.3 244.1 L410.7 243.8 L409.7 243.1 L408.6 243.3 L407.4 242.7 L406.8 241.3 L406.9 241.4 L407.0 240.7 L405.8 238.6 L405.0 238.9 L403.3 238.1 L403.1 236.4 L403.2 236.2 L400.9 236.3 L401.4 234.6 L400.2 235.3 L398.7 234.2 L397.7 233.5 L397.1 233.1 L396.0 232.3 L395.7 232.0 L395.0 231.8 L393.9 230.7 L393.1 229.7 L392.5 229.5 L392.1 229.3 L390.5 228.3 L390.3 228.8 L388.6 228.8 L388.1 228.6 L386.1 228.9 L385.6 229.2 L385.5 227.7 L384.8 229.0 L384.0 228.7 L382.6 227.1 L380.7 228.2 L380.0 228.5 L379.6 227.3 L379.5 227.0 L377.5 226.9 L377.6 226.9 L377.1 225.6 L374.9 225.1 L374.7 225.2 L373.9 225.7 L373.3 224.7 L371.6 225.5 L370.1 224.4 L370.2 225.1 L368.7 224.2 L366.8 224.4 L365.6 222.8 L365.4 224.4 L363.7 223.9 L362.8 224.8 L361.8 224.1 L361.0 223.2 L360.8 225.0 L360.4 224.7 L359.5 223.9 L358.2 224.9 L356.7 225.1 L356.7 224.9 L355.8 225.2 L354.2 225.2 L352.8 225.6 L351.8 224.9 L350.7 224.2 L350.9 223.7 L350.2 224.1 L348.5 225.4 L346.7 224.4 L347.1 224.5 L346.0 225.9 L343.9 225.8 L344.7 224.9 L342.3 224.8 L341.7 225.7 L341.5 225.4 L341.0 225.2 L338.8 225.3 L337.6 226.5 L337.3 226.9 L335.8 225.5 L334.6 227.7 L334.4 226.8 L333.8 227.2 L333.0 227.4 L332.0 228.4 L330.0 228.7 L329.1 229.9 L328.7 230.6 L327.4 232.1 L327.0 232.1 L326.8 232.6 L326.1 233.7 L324.4 233.9 L324.8 234.7 L323.9 236.4 L323.1 236.4 L321.4 236.8 L320.9 238.0 L320.0 237.4 L319.9 238.8 L318.2 239.1 L318.1 238.4 L317.1 240.1 L315.5 239.3 L314.8 241.2 L313.8 240.8 L313.0 241.8 L312.3 242.9 L312.9 243.2 L311.2 243.2 L311.1 244.4 L309.8 245.0 L309.2 244.5 L308.4 246.0 L307.4 245.3 L307.5 246.0 L307.1 246.2 L305.3 248.2 L306.1 248.7 L304.5 250.0 L304.9 249.5 L302.6 251.1 L303.0 251.1 L302.5 252.8 L300.7 252.4 L300.1 254.4 L300.8 255.5 L299.2 256.7 L299.6 257.1 L298.1 257.5 L299.2 258.1 L297.3 259.6 L297.1 259.7 L296.9 259.9 L296.4 260.5 L295.0 261.3 L295.2 261.5 L294.2 262.2 L294.2 263.3 L293.5 263.8 L294.2 265.4 L293.7 265.2 L293.1 266.6 L292.0 267.2 L292.9 267.8 L291.8 269.0 L291.3 271.2 L291.2 271.6 L289.8 272.6 L290.9 272.9 L289.3 274.0 L288.7 275.1 L289.0 277.1 L289.0 276.4 L287.9 277.4 L288.7 279.3 L289.1 280.5 L287.9 281.1 L288.2 282.4 L288.1 283.9 L286.8 284.2 L287.0 284.9 L287.4 286.2 L287.7 287.7 L287.5 288.8 L286.9 288.7 Z" fill="#141311" opacity="0.8400000000000001"/><path d="M253.8 281.8 L253.9 281.0 L253.9 280.7 L254.2 278.9 L253.9 277.1 L255.5 276.5 L255.6 275.4 L254.8 273.2 L255.5 270.4 L257.2 268.9 L257.8 268.3 L257.1 266.7 L257.7 264.9 L258.1 262.9 L258.3 262.5 L259.4 261.1 L260.3 261.0 L259.6 259.7 L261.6 258.4 L262.4 257.3 L261.8 255.3 L261.9 254.3 L264.2 253.2 L264.2 251.8 L265.6 250.5 L265.8 249.5 L266.2 248.4 L266.3 246.4 L267.2 246.0 L268.3 244.2 L269.8 243.5 L269.9 241.0 L270.4 240.7 L271.6 238.9 L272.1 237.6 L273.0 236.1 L273.3 235.3 L274.6 234.4 L274.8 232.9 L277.4 231.6 L277.4 231.9 L279.0 231.0 L280.2 230.1 L279.9 228.4 L281.5 228.6 L281.7 227.9 L284.0 227.4 L283.8 226.2 L284.7 224.8 L287.2 223.2 L288.2 223.5 L289.4 221.2 L289.6 221.7 L290.5 219.7 L292.3 218.5 L293.3 218.4 L294.8 216.9 L294.8 215.5 L296.2 214.5 L297.6 213.5 L299.2 213.4 L300.0 211.4 L301.5 210.1 L303.2 209.6 L304.2 210.0 L305.4 208.2 L306.2 207.0 L307.5 206.7 L309.4 207.2 L309.6 205.8 L310.5 204.0 L312.8 203.9 L313.0 203.1 L315.6 203.9 L315.7 202.5 L317.2 201.3 L319.3 200.8 L320.9 200.1 L321.5 199.3 L322.4 200.0 L324.3 198.6 L325.4 198.1 L327.6 197.8 L328.2 198.4 L329.0 196.7 L330.6 197.8 L332.9 196.9 L333.2 196.5 L334.6 197.4 L335.7 196.0 L337.1 195.4 L339.0 195.6 L340.9 196.7 L342.5 195.1 L343.4 195.3 L345.7 194.7 L345.9 194.6 L347.7 194.7 L349.8 195.0 L351.2 194.5 L351.6 193.9 L354.0 193.6 L354.3 194.6 L355.8 193.9 L357.6 193.4 L359.5 193.2 L361.1 193.8 L362.9 193.4 L362.7 193.2 L363.9 194.0 L365.7 192.6 L367.2 194.3 L368.9 193.2 L370.9 193.8 L371.8 192.6 L373.5 192.9 L375.4 193.0 L375.7 194.1 L377.0 194.0 L378.9 194.9 L379.6 195.0 L381.1 194.5 L382.6 196.0 L383.9 196.2 L386.2 197.2 L387.5 197.1 L387.9 197.0 L389.4 198.8 L391.3 199.2 L392.6 199.7 L394.1 199.6 L395.5 200.2 L396.0 202.1 L397.7 202.8 L399.4 202.8 L400.9 202.3 L402.3 204.0 L403.5 204.8 L404.9 204.8 L406.8 204.8 L407.7 206.0 L408.3 206.3 L409.3 206.4 L410.7 207.3 L412.2 207.5 L413.5 207.5 L414.6 209.2 L417.1 208.5 L416.9 210.2 L418.1 210.9 L420.1 210.5 L420.7 212.2 L421.4 211.9 L423.3 213.6 L423.6 213.4 L425.0 214.0 L427.1 215.5 L428.0 216.5 L429.0 216.6 L430.2 217.9 L430.3 218.4 L431.4 220.2 L433.2 221.7 L433.5 222.9 L435.8 224.2 L436.6 225.8 L437.8 226.4 L437.3 228.2 L438.9 228.9 L440.3 231.0 L440.7 230.8 L442.4 233.3 L443.0 233.0 L444.2 233.7 L444.1 236.2 L445.3 236.8 L446.3 237.8 L447.5 239.2 L447.8 239.2 L448.7 240.7 L450.5 241.0 L451.5 242.6 L451.4 244.6 L451.4 244.9 L452.8 246.7 L452.8 246.5 L454.0 248.4 L455.8 249.3 L455.4 249.8 L455.9 252.4 L456.8 253.9 L457.4 253.7 L458.6 256.1 L458.5 256.7 L460.1 257.8 L459.1 259.4 L460.5 260.6 L460.8 262.9 L461.8 264.0 L462.2 264.7 L463.1 266.9 L462.7 267.3 L462.3 268.5 L463.3 270.7 L463.5 271.8 L463.9 274.2 L465.1 275.5 L465.1 277.8 L465.8 279.4 L464.9 279.8 L466.4 282.7 L465.7 285.0 L466.0 286.6 L467.1 287.5 L466.4 288.4 L467.1 289.2 L467.6 290.2 L468.1 290.1 L467.8 289.1 L467.1 288.4 L467.7 287.5 L466.7 286.5 L466.4 284.9 L467.1 282.6 L465.8 279.6 L466.7 279.2 L466.1 277.6 L466.2 275.3 L464.8 274.0 L464.6 271.6 L464.5 270.4 L463.5 268.2 L463.7 267.0 L464.2 266.5 L463.6 264.3 L463.2 263.5 L462.0 262.4 L461.8 260.1 L460.4 258.9 L461.5 257.2 L459.9 256.0 L460.0 255.5 L458.8 253.0 L458.3 253.2 L457.5 251.6 L456.9 249.0 L457.2 248.5 L455.6 247.5 L454.4 245.5 L454.3 245.7 L452.8 243.9 L453.1 243.4 L453.0 241.6 L452.1 239.9 L450.2 239.5 L449.3 238.0 L449.1 237.8 L447.9 236.5 L446.9 235.3 L445.6 234.9 L445.7 232.3 L444.8 231.4 L444.2 231.7 L442.6 229.1 L441.9 229.6 L440.5 227.4 L439.2 226.6 L439.5 225.0 L438.4 224.4 L437.8 222.7 L435.5 221.2 L435.0 220.2 L433.2 218.7 L432.3 216.6 L432.1 216.1 L430.8 214.9 L430.0 214.3 L428.8 213.6 L426.6 211.9 L425.0 211.3 L424.8 211.2 L422.8 209.3 L422.1 209.4 L421.3 208.0 L419.2 208.5 L417.9 207.8 L418.2 205.9 L415.7 206.6 L414.7 204.8 L413.6 204.5 L411.9 204.6 L410.7 203.1 L409.4 203.7 L408.8 203.3 L408.1 201.5 L406.0 202.0 L404.8 201.4 L403.6 200.6 L402.0 199.4 L400.8 199.4 L398.8 200.0 L397.1 199.2 L396.9 197.1 L395.5 196.4 L394.2 196.2 L392.7 196.3 L390.8 195.7 L389.2 194.1 L388.8 194.2 L387.6 193.9 L385.3 192.5 L383.7 192.7 L382.2 190.9 L380.6 191.1 L379.8 191.1 L377.8 190.2 L376.3 190.6 L376.0 189.5 L373.9 189.6 L372.1 189.2 L371.2 190.1 L369.1 189.3 L367.4 190.1 L365.7 189.2 L364.0 190.4 L362.7 189.4 L362.7 189.3 L360.8 189.7 L359.1 189.8 L357.1 189.5 L355.3 190.4 L353.6 190.6 L353.5 190.3 L351.0 190.3 L350.5 190.6 L349.2 191.4 L347.2 191.2 L345.4 191.5 L345.3 191.6 L343.0 191.7 L342.1 191.5 L340.6 193.2 L338.7 192.4 L336.8 191.9 L335.3 192.4 L334.1 193.8 L332.7 193.4 L332.3 193.4 L329.8 194.3 L328.3 193.9 L327.3 195.4 L326.6 194.7 L324.5 195.3 L323.4 195.9 L321.1 196.7 L320.5 196.8 L319.6 197.0 L318.0 197.9 L316.0 198.8 L314.4 199.8 L314.1 201.0 L311.7 200.5 L311.5 201.4 L309.1 201.5 L308.1 203.0 L308.0 204.6 L306.1 204.4 L304.7 204.7 L303.8 205.8 L302.9 208.0 L301.8 207.5 L299.9 207.8 L298.3 209.1 L297.5 211.1 L295.9 211.5 L294.5 212.5 L293.1 213.7 L293.1 215.0 L291.5 216.6 L290.6 216.8 L288.8 218.0 L287.7 219.9 L287.5 219.3 L286.4 221.7 L285.8 221.7 L283.0 222.9 L282.2 224.4 L282.6 225.8 L280.5 226.3 L280.0 226.7 L278.5 226.5 L278.7 228.2 L277.6 229.2 L275.9 230.2 L276.0 230.2 L273.5 231.6 L273.2 233.1 L271.7 234.1 L271.3 235.0 L270.4 236.5 L269.9 237.9 L268.8 239.8 L268.3 240.1 L268.2 242.7 L266.7 243.4 L265.7 245.2 L264.8 245.7 L264.9 247.7 L264.3 248.8 L264.4 249.8 L262.7 251.0 L262.9 252.6 L260.8 253.6 L260.5 254.6 L261.3 256.7 L260.4 257.8 L258.4 259.1 L259.1 260.4 L258.3 260.7 L257.1 262.0 L257.1 262.5 L256.8 264.6 L255.9 266.3 L256.8 268.1 L256.2 268.7 L254.7 270.2 L254.0 273.0 L254.8 275.2 L254.8 276.3 L253.1 276.9 L253.6 278.7 L253.3 280.6 L253.4 280.9 L253.4 281.7 Z" fill="#141311" opacity="0.78"/><path d="M219.1 277.7 L220.8 278.0 L220.9 276.5 L221.6 274.9 L221.9 273.0 L221.9 270.8 L221.7 268.5 L222.0 266.4 L223.1 264.7 L223.3 262.3 L224.0 260.0 L224.2 257.5 L226.1 255.2 L225.4 253.8 L227.6 252.2 L227.4 251.4 L228.3 248.3 L228.0 246.8 L228.7 245.6 L230.4 244.6 L231.1 242.0 L232.2 240.6 L231.9 238.9 L233.4 237.9 L234.3 235.1 L235.4 235.3 L236.6 233.3 L236.2 232.4 L237.6 230.4 L238.4 228.5 L239.0 227.3 L240.7 225.8 L241.2 224.4 L242.8 223.9 L243.8 221.9 L244.7 220.3 L246.6 219.2 L247.6 216.8 L248.1 216.0 L250.1 214.3 L250.3 213.3 L252.1 211.6 L253.0 209.6 L254.8 207.2 L255.7 206.3 L256.4 203.9 L257.9 203.7 L259.9 201.4 L259.3 201.0 L262.1 198.5 L263.0 197.9 L264.1 195.9 L265.4 195.9 L267.2 193.5 L268.0 194.1 L270.3 192.6 L271.8 191.6 L273.1 190.2 L273.6 188.2 L275.5 188.5 L277.1 186.8 L278.3 185.1 L279.2 185.2 L282.3 184.6 L282.2 183.3 L284.4 181.8 L285.7 181.9 L288.1 179.8 L288.5 180.3 L290.6 179.3 L292.1 178.2 L293.3 177.4 L296.6 176.0 L297.5 175.2 L298.5 175.3 L300.1 174.3 L301.5 173.0 L304.4 171.9 L305.6 171.8 L308.2 170.9 L308.9 168.9 L310.2 167.9 L313.0 169.0 L314.7 167.5 L315.8 166.9 L317.8 166.3 L319.9 166.0 L320.5 165.2 L322.4 164.8 L325.2 163.7 L326.6 162.1 L327.5 162.1 L330.2 161.9 L331.4 160.5 L332.9 161.5 L336.2 160.6 L336.4 160.9 L338.8 160.8 L340.5 159.9 L342.4 160.2 L345.3 158.5 L345.5 158.3 L348.7 158.1 L350.2 157.4 L351.6 158.3 L354.4 158.5 L354.8 157.7 L357.8 158.0 L359.2 158.4 L360.6 157.8 L361.7 159.1 L364.9 158.2 L365.7 157.7 L367.6 158.7 L370.6 159.5 L371.5 158.7 L373.5 160.2 L375.7 161.1 L376.9 159.7 L379.3 160.4 L380.3 161.2 L382.5 161.3 L384.8 162.2 L385.6 162.1 L387.9 163.2 L389.1 162.5 L391.0 163.1 L394.0 163.6 L395.6 164.3 L396.5 163.6 L399.3 164.8 L400.4 165.8 L401.2 165.5 L403.5 167.1 L406.3 167.7 L407.5 168.5 L409.9 167.7 L410.0 169.2 L412.1 169.1 L414.3 169.4 L415.1 171.3 L416.6 170.8 L419.4 172.8 L421.0 174.0 L422.9 174.1 L423.3 174.9 L426.0 176.4 L426.6 176.8 L428.4 177.3 L430.0 179.5 L431.8 180.4 L433.7 180.4 L436.0 181.7 L437.4 183.5 L437.7 185.2 L439.6 186.3 L441.3 187.1 L442.7 187.7 L444.7 189.3 L446.1 190.6 L446.6 190.9 L448.7 191.5 L450.4 192.4 L451.7 192.9 L453.7 194.0 L454.0 195.9 L456.3 195.9 L456.6 197.9 L457.9 198.8 L460.2 200.1 L460.2 200.9 L463.0 201.4 L463.7 203.1 L465.3 203.4 L465.3 205.2 L466.4 206.1 L468.9 209.1 L469.4 210.1 L471.6 211.0 L472.4 211.9 L473.4 213.9 L474.5 214.9 L474.6 216.9 L475.9 218.8 L477.8 219.8 L477.6 221.8 L480.0 223.2 L479.3 225.8 L481.5 226.1 L482.7 227.7 L484.0 229.5 L485.0 231.8 L485.7 232.8 L485.3 233.9 L485.8 237.1 L487.8 237.1 L488.5 239.3 L488.5 240.5 L490.7 242.3 L490.9 243.8 L491.5 246.6 L492.6 248.1 L492.7 249.1 L493.2 250.6 L493.1 252.5 L494.2 253.7 L494.7 257.3 L495.2 258.1 L496.6 261.1 L497.1 263.1 L497.3 266.2 L497.2 268.5 L498.2 269.5 L498.5 272.3 L498.1 272.9 L499.4 275.2 L499.3 276.5 L499.9 276.4 L500.0 275.1 L498.9 272.8 L499.3 272.1 L498.9 269.3 L498.1 268.3 L498.2 266.0 L498.1 262.9 L497.5 260.8 L496.3 257.9 L495.8 257.0 L495.1 253.4 L494.2 252.1 L494.5 250.2 L493.9 248.6 L494.0 247.6 L492.7 246.0 L492.3 243.2 L492.0 241.8 L489.8 239.9 L489.8 238.7 L489.1 236.4 L487.4 236.3 L486.7 233.2 L487.2 231.9 L486.4 231.1 L485.5 228.7 L484.3 226.8 L483.1 225.2 L481.1 224.8 L481.8 222.1 L479.4 220.7 L479.3 218.8 L477.8 217.6 L476.5 215.6 L476.2 213.7 L475.2 212.6 L474.0 210.7 L473.2 209.7 L471.2 208.7 L470.8 207.5 L468.2 204.6 L467.1 203.6 L467.1 201.8 L465.4 201.4 L464.8 199.6 L462.1 198.9 L462.1 198.0 L459.8 196.6 L458.3 195.9 L458.0 193.6 L455.7 193.4 L455.3 191.7 L453.4 190.3 L451.8 190.1 L450.1 189.3 L448.3 188.2 L447.8 187.9 L446.2 187.0 L444.3 185.3 L442.9 184.7 L441.6 183.4 L439.5 182.8 L439.5 180.7 L437.7 179.4 L435.5 177.9 L433.8 177.6 L432.0 176.7 L430.4 174.5 L428.6 173.8 L427.8 173.4 L424.9 172.2 L424.5 171.2 L422.6 170.6 L421.0 169.4 L418.0 167.6 L416.5 167.8 L415.5 166.3 L413.3 166.0 L411.2 166.1 L411.0 164.4 L408.8 164.8 L407.5 164.3 L404.7 163.6 L402.4 161.9 L401.5 162.2 L400.2 161.5 L397.5 160.1 L396.7 160.1 L394.9 160.0 L391.8 159.6 L389.9 159.0 L388.8 159.2 L386.5 158.0 L385.7 157.9 L383.3 157.3 L381.1 157.0 L379.9 156.9 L377.6 155.8 L376.6 156.6 L374.1 156.6 L372.2 154.4 L371.2 155.6 L368.2 154.4 L366.1 153.9 L365.3 153.9 L362.1 154.5 L360.8 153.6 L359.3 153.7 L357.8 154.1 L354.7 154.0 L354.2 154.4 L351.4 154.4 L349.9 153.7 L348.3 154.3 L345.0 154.3 L344.7 154.3 L341.8 155.9 L339.9 156.4 L338.0 156.7 L335.7 157.4 L335.4 156.9 L331.9 157.5 L330.5 157.2 L329.1 158.2 L326.5 158.8 L325.5 158.8 L323.9 159.9 L321.2 161.3 L319.2 161.6 L318.5 162.2 L316.7 163.3 L314.5 163.5 L313.5 164.5 L311.5 165.5 L308.8 164.7 L307.4 165.7 L306.7 167.7 L304.1 168.8 L302.8 168.7 L300.1 170.2 L298.6 171.3 L296.9 172.2 L295.9 172.3 L295.1 173.2 L291.6 174.3 L290.4 175.2 L289.2 176.7 L286.9 177.5 L286.6 177.2 L284.1 179.2 L282.7 178.9 L280.6 180.7 L280.6 181.9 L277.6 182.7 L276.7 182.7 L275.3 184.2 L273.8 186.1 L272.1 186.1 L271.5 188.0 L270.0 189.1 L268.6 190.4 L266.1 191.7 L265.4 191.3 L263.6 193.8 L262.4 194.0 L261.2 195.9 L260.2 196.6 L257.5 199.3 L257.8 199.5 L256.0 202.1 L254.6 202.5 L253.9 205.0 L252.7 205.6 L251.1 208.2 L250.4 210.4 L248.2 211.8 L248.0 212.8 L246.3 214.8 L246.0 215.7 L244.8 217.9 L242.9 219.0 L242.1 220.7 L241.0 222.6 L239.5 223.2 L239.0 224.5 L237.4 226.2 L236.8 227.4 L236.0 229.3 L234.5 231.3 L234.9 232.3 L233.7 234.4 L232.8 234.4 L232.1 237.2 L230.4 238.1 L230.5 239.8 L229.5 241.3 L228.9 243.9 L227.4 245.1 L226.6 246.2 L226.9 247.7 L226.2 251.0 L226.3 251.8 L224.1 253.4 L224.8 254.8 L223.1 257.2 L222.8 259.7 L222.1 262.0 L222.0 264.5 L221.1 266.2 L220.9 268.4 L221.1 270.7 L221.1 272.8 L220.8 274.8 L220.2 276.4 L220.2 277.9 L218.7 277.7 Z" fill="#141311" opacity="0.72"/><path d="M185.6 274.0 L187.4 271.5 L187.3 270.0 L186.7 268.0 L187.4 267.1 L189.4 264.4 L189.2 260.6 L189.6 258.2 L189.9 255.5 L190.4 253.5 L191.2 250.5 L193.1 247.7 L193.3 246.4 L194.4 242.8 L195.2 240.4 L196.0 238.2 L197.2 236.4 L196.7 234.4 L198.5 230.8 L199.2 229.1 L201.1 227.5 L200.6 223.9 L202.6 221.7 L203.7 220.9 L204.4 218.2 L205.5 216.1 L205.7 214.4 L208.3 213.0 L208.9 210.9 L210.4 209.9 L211.2 207.1 L211.8 206.7 L214.6 204.5 L215.0 203.9 L216.7 202.2 L218.2 200.0 L220.0 197.3 L221.3 196.6 L221.8 194.7 L223.4 192.0 L224.5 190.5 L226.5 188.3 L228.9 185.6 L229.8 184.1 L230.6 181.7 L232.4 179.3 L234.4 178.3 L235.7 176.0 L237.0 173.6 L238.9 171.2 L240.6 170.9 L243.3 168.9 L244.8 167.0 L245.3 165.6 L248.6 165.3 L249.2 162.6 L251.5 162.6 L253.8 160.3 L255.3 160.3 L256.1 159.1 L258.7 156.2 L260.9 156.0 L262.4 153.7 L265.3 154.3 L266.8 153.0 L268.4 151.9 L270.7 150.0 L273.3 148.8 L274.0 147.5 L276.0 146.4 L278.8 146.7 L280.2 145.8 L283.1 144.4 L285.9 142.7 L287.9 142.3 L288.7 140.6 L290.6 139.8 L293.4 138.3 L296.4 137.6 L298.6 135.6 L299.4 134.9 L302.9 133.6 L305.0 132.5 L306.0 132.0 L308.7 132.3 L310.3 131.9 L313.4 130.3 L314.7 130.1 L318.2 128.3 L320.3 128.2 L322.6 127.5 L324.9 127.7 L327.3 126.5 L329.3 127.2 L330.3 126.5 L333.6 127.2 L334.9 126.0 L338.0 125.6 L340.1 125.2 L343.1 124.4 L345.0 124.3 L347.2 124.1 L348.7 123.6 L351.7 124.4 L354.2 124.1 L356.4 125.0 L358.8 124.1 L360.2 124.2 L363.6 123.8 L366.1 124.4 L367.1 125.2 L370.4 125.4 L372.2 126.1 L374.8 126.6 L376.6 126.0 L378.4 126.9 L382.1 128.3 L382.7 129.2 L385.6 130.1 L387.7 130.4 L391.2 130.5 L393.7 131.4 L395.8 130.5 L396.6 132.1 L400.3 131.7 L401.1 132.3 L404.1 133.4 L406.9 134.2 L409.2 135.3 L410.9 134.2 L413.9 135.2 L415.5 136.1 L417.5 137.0 L418.9 137.5 L421.9 138.1 L423.4 138.8 L425.4 140.5 L427.7 140.2 L430.1 142.9 L432.4 142.6 L433.7 144.6 L437.2 145.9 L439.0 146.6 L440.9 147.8 L443.8 148.4 L444.0 149.4 L446.2 149.8 L448.7 150.7 L451.5 152.9 L452.7 154.0 L454.7 153.7 L456.2 154.8 L459.5 155.7 L460.7 158.5 L462.9 159.1 L463.8 159.3 L466.1 161.5 L468.5 163.0 L469.7 163.7 L471.3 164.7 L473.1 166.1 L475.1 167.4 L476.1 169.9 L478.7 170.2 L479.6 173.3 L483.0 174.6 L482.8 176.5 L485.9 177.8 L486.4 179.1 L488.4 179.8 L490.8 182.3 L492.1 184.7 L493.8 186.4 L494.1 187.6 L496.4 188.8 L497.2 191.3 L498.7 192.5 L500.7 193.4 L501.7 195.9 L503.5 198.3 L504.2 200.0 L505.6 201.6 L507.3 204.8 L508.6 207.2 L509.9 208.1 L511.2 210.9 L512.7 213.5 L512.8 216.5 L514.2 217.6 L515.8 219.6 L516.8 222.5 L517.2 225.9 L518.8 227.8 L520.4 230.5 L520.3 232.6 L520.5 234.5 L522.8 235.8 L523.3 237.3 L524.0 240.8 L525.4 242.9 L525.0 244.2 L526.1 246.3 L526.6 249.7 L527.3 251.2 L529.1 253.7 L529.9 255.1 L530.4 258.5 L531.3 260.9 L530.7 263.9 L531.6 264.9 L531.5 269.0 L532.3 271.5 L533.8 273.4 L533.3 276.2 L534.7 277.1 L534.7 278.4 L534.0 279.5 L534.7 279.3 L535.4 278.2 L535.4 276.9 L534.2 276.0 L534.7 273.2 L533.3 271.3 L532.6 268.8 L532.5 264.7 L531.9 263.6 L532.4 260.7 L531.7 258.2 L531.0 254.8 L530.4 253.3 L528.6 250.8 L527.9 249.3 L527.6 245.8 L526.5 243.7 L526.7 242.4 L525.5 240.2 L524.8 236.8 L524.3 235.2 L522.2 233.8 L522.1 231.9 L522.0 229.8 L520.5 227.1 L519.1 225.0 L518.7 221.6 L517.4 218.9 L515.9 216.8 L514.6 215.7 L514.6 212.6 L513.1 210.0 L512.0 207.1 L510.8 206.0 L509.1 203.7 L507.5 200.4 L506.4 198.6 L505.7 196.9 L503.9 194.4 L502.6 191.9 L500.7 191.0 L499.2 189.6 L498.2 187.3 L496.3 185.6 L496.0 184.5 L494.1 182.8 L492.9 180.4 L490.3 177.9 L488.5 176.9 L488.0 175.7 L485.0 174.3 L484.9 172.7 L481.5 171.2 L480.6 168.1 L478.0 167.7 L477.3 164.8 L475.0 163.8 L473.3 162.1 L471.9 160.8 L470.4 160.4 L467.9 159.0 L465.5 156.7 L464.8 156.2 L462.6 155.4 L461.1 152.9 L457.7 152.0 L456.4 150.5 L454.4 150.8 L453.0 150.0 L450.4 147.4 L447.9 146.6 L445.8 145.9 L445.4 145.3 L442.8 144.1 L440.7 143.3 L439.1 142.0 L435.4 141.3 L434.1 139.2 L431.9 139.0 L429.1 137.0 L427.0 136.9 L424.8 135.5 L423.4 134.3 L420.2 133.9 L418.7 133.4 L416.9 131.8 L415.1 131.0 L412.1 129.9 L410.3 131.1 L407.8 130.3 L405.0 129.1 L402.1 127.9 L401.2 127.4 L397.5 127.6 L396.7 126.5 L394.8 126.7 L392.2 126.0 L388.7 126.2 L386.7 125.8 L384.0 124.4 L383.2 124.3 L379.7 122.1 L377.6 122.0 L375.9 122.2 L373.2 121.5 L371.2 121.0 L367.9 120.4 L366.7 119.7 L364.0 119.1 L360.4 119.9 L358.9 119.4 L356.3 120.0 L354.0 119.5 L351.4 119.6 L348.4 119.5 L346.7 119.4 L344.6 119.9 L342.7 120.6 L339.6 121.3 L337.5 121.6 L334.3 121.5 L333.0 122.8 L329.6 122.0 L328.6 122.9 L326.5 122.3 L324.0 123.3 L321.8 123.7 L319.4 124.4 L317.3 124.7 L313.8 126.6 L312.2 126.1 L309.1 128.2 L307.4 128.6 L304.7 128.6 L303.6 129.1 L301.4 130.1 L297.9 131.6 L296.9 132.1 L294.7 134.2 L291.8 135.2 L288.9 136.4 L287.0 137.2 L286.2 139.0 L284.1 139.3 L281.6 141.5 L278.4 142.3 L277.1 143.6 L274.4 143.3 L272.3 144.4 L271.5 145.5 L268.8 146.7 L266.9 149.3 L265.0 149.8 L263.7 151.7 L260.8 151.1 L259.3 153.5 L256.9 153.6 L254.5 156.7 L253.4 157.6 L251.9 157.6 L249.9 160.3 L247.3 160.1 L246.8 163.1 L243.3 163.1 L243.1 164.9 L241.5 166.9 L238.4 168.6 L236.8 169.2 L234.8 171.5 L233.5 174.0 L232.1 176.3 L230.1 177.5 L228.2 179.9 L227.8 182.6 L226.6 183.9 L224.6 187.0 L222.5 189.2 L221.5 190.6 L220.0 193.4 L219.4 195.2 L217.9 195.8 L216.5 198.7 L214.8 200.7 L213.3 202.6 L212.9 203.1 L210.1 205.3 L209.3 205.7 L208.9 208.7 L207.2 209.7 L206.7 211.9 L203.9 213.2 L203.8 215.1 L202.6 217.3 L202.1 220.1 L201.0 221.0 L199.1 223.2 L199.6 226.8 L197.5 228.5 L196.9 230.2 L195.2 233.9 L195.8 235.9 L194.7 237.8 L193.8 240.0 L193.2 242.4 L192.0 246.0 L191.7 247.4 L190.0 250.2 L189.3 253.2 L188.7 255.2 L188.5 258.0 L188.3 260.4 L188.5 264.2 L186.5 266.9 L186.0 267.8 L186.5 269.9 L186.8 271.4 L185.1 273.9 Z" fill="#2540C8" opacity="0.66"/><path d="M152.3 266.3 L154.2 264.6 L154.4 262.3 L154.0 259.6 L155.6 257.1 L155.0 255.0 L156.6 252.4 L157.7 249.5 L157.9 246.8 L157.8 244.4 L158.6 241.2 L159.9 238.0 L161.3 235.3 L161.3 234.1 L163.3 230.2 L163.7 227.8 L165.2 226.5 L166.6 223.6 L167.8 221.6 L167.6 219.0 L169.8 216.6 L170.6 212.6 L171.9 211.5 L172.6 208.7 L175.2 205.9 L175.1 203.9 L177.1 200.5 L178.7 198.7 L179.8 195.7 L180.5 192.4 L183.3 190.6 L185.0 189.0 L186.7 186.7 L186.7 182.6 L188.8 180.3 L190.8 178.5 L192.0 176.8 L192.9 174.8 L195.5 172.2 L197.3 169.4 L200.0 167.8 L200.0 165.4 L202.6 163.3 L204.1 162.7 L205.5 159.7 L209.1 157.4 L210.7 156.6 L212.4 154.2 L213.9 151.0 L217.0 148.9 L218.3 147.5 L220.6 145.7 L223.3 143.8 L224.3 142.2 L225.9 140.4 L229.5 137.2 L231.1 135.6 L234.0 134.9 L235.9 131.8 L237.6 130.9 L240.5 128.8 L241.8 127.8 L244.9 125.6 L246.8 124.4 L249.0 122.3 L252.3 121.4 L253.8 119.2 L257.3 118.5 L258.5 116.2 L262.0 115.4 L264.5 115.1 L265.7 114.3 L268.1 112.5 L270.8 111.9 L274.0 110.5 L275.9 109.7 L277.9 108.5 L280.4 108.1 L283.9 106.8 L286.8 106.6 L289.0 105.9 L292.3 104.1 L294.7 104.1 L297.6 102.9 L299.1 103.1 L301.4 101.1 L304.9 100.6 L308.1 99.4 L309.8 100.8 L312.6 98.9 L315.1 98.0 L318.9 98.2 L320.5 98.1 L324.4 97.5 L327.2 95.7 L330.2 96.6 L332.3 96.8 L335.6 96.2 L337.3 94.7 L341.2 94.4 L343.0 94.9 L346.3 95.1 L349.2 94.8 L351.9 95.0 L354.5 94.7 L356.4 94.7 L358.9 94.1 L363.0 95.2 L364.8 93.9 L368.6 94.2 L370.0 93.8 L374.4 95.7 L376.9 95.2 L378.6 94.4 L381.1 96.1 L384.9 96.2 L386.6 95.1 L389.8 95.6 L393.4 96.3 L395.8 96.3 L398.0 97.3 L400.3 97.3 L403.8 99.3 L405.8 99.2 L408.3 99.0 L412.5 100.9 L415.2 100.5 L417.4 101.5 L420.3 102.1 L422.6 103.4 L424.8 103.1 L427.4 103.8 L429.7 106.4 L432.5 106.3 L436.2 106.8 L438.1 107.4 L440.5 108.3 L444.0 110.5 L446.3 110.5 L447.8 113.4 L451.5 112.7 L453.0 114.2 L456.6 115.3 L458.2 116.9 L459.9 119.6 L462.3 119.3 L465.5 121.3 L468.7 123.5 L469.5 124.4 L472.5 126.5 L475.2 127.6 L477.5 129.0 L479.2 130.7 L480.9 133.2 L485.0 135.2 L486.4 135.5 L488.4 137.2 L491.6 140.1 L492.1 140.8 L494.1 143.7 L497.7 145.4 L498.9 146.9 L500.5 148.2 L503.6 149.5 L504.6 152.5 L506.9 153.8 L509.0 156.5 L511.6 158.0 L513.8 160.0 L514.4 161.4 L516.1 162.9 L518.8 164.5 L520.7 167.1 L523.2 169.4 L523.2 171.9 L526.4 172.5 L526.9 174.9 L528.5 177.4 L530.8 178.6 L532.2 181.5 L534.2 183.2 L534.5 186.5 L536.7 189.0 L539.0 191.3 L540.7 192.6 L541.2 196.2 L542.6 198.8 L543.4 201.8 L546.2 204.0 L546.5 206.3 L547.1 208.4 L550.0 212.2 L551.0 213.4 L551.7 216.1 L551.9 219.9 L553.4 222.5 L554.8 225.4 L555.7 227.0 L556.2 229.4 L557.5 232.8 L558.1 236.1 L558.6 238.1 L561.0 240.6 L561.6 243.7 L562.3 247.0 L562.9 249.4 L562.8 251.0 L563.7 254.8 L564.5 258.2 L565.5 261.3 L566.6 263.3 L565.9 266.7 L566.7 268.6 L568.0 272.4 L567.2 274.0 L568.8 275.7 L568.4 278.4 L569.2 278.2 L569.6 275.5 L568.0 273.8 L568.8 272.3 L567.8 268.4 L566.8 266.5 L567.6 263.2 L566.7 261.1 L565.6 258.0 L564.9 254.6 L564.2 250.7 L564.1 249.1 L563.7 246.7 L562.9 243.4 L562.3 240.2 L560.1 237.6 L559.5 235.6 L559.1 232.3 L557.8 228.8 L557.3 226.4 L556.5 224.8 L555.1 221.8 L553.8 219.1 L553.6 215.2 L552.6 212.7 L551.7 211.5 L548.9 207.5 L548.3 205.4 L547.9 203.1 L545.2 200.8 L544.6 197.8 L543.5 195.0 L542.6 191.4 L541.3 190.0 L538.7 187.7 L536.9 184.9 L536.6 181.6 L534.2 180.1 L532.9 177.1 L530.7 175.8 L529.0 173.3 L528.7 170.7 L525.6 169.9 L525.3 167.6 L523.1 164.8 L521.0 162.5 L518.4 160.7 L516.4 159.5 L516.0 157.8 L514.0 155.6 L511.3 154.2 L509.0 151.5 L506.8 150.2 L505.9 146.9 L502.7 145.7 L500.9 144.6 L499.8 142.8 L496.4 140.8 L494.4 138.0 L493.7 137.4 L490.4 134.5 L488.5 132.8 L487.1 132.6 L483.2 130.1 L481.7 127.3 L479.9 125.7 L477.4 124.6 L474.8 123.2 L471.9 120.9 L470.6 120.5 L467.5 118.2 L464.2 116.1 L461.9 116.1 L460.3 113.1 L458.5 111.6 L454.9 110.4 L453.1 109.3 L449.7 109.2 L447.9 106.9 L445.8 106.3 L442.0 104.6 L439.6 103.6 L437.7 102.8 L433.9 102.4 L431.3 101.8 L428.8 99.6 L426.2 98.6 L424.0 98.7 L421.5 98.0 L418.6 97.1 L416.5 95.5 L413.7 95.9 L409.4 94.0 L406.8 94.6 L404.8 94.3 L401.2 92.6 L398.8 92.8 L396.5 91.5 L394.0 92.0 L390.4 91.0 L387.2 90.1 L385.5 91.0 L381.6 90.9 L378.9 89.8 L377.2 90.5 L374.7 90.3 L370.3 88.6 L368.8 89.4 L364.9 88.9 L363.1 90.2 L358.9 89.2 L356.3 89.7 L354.4 89.6 L351.8 89.7 L348.9 89.5 L346.0 90.3 L342.6 89.8 L340.8 89.9 L336.8 90.4 L335.1 91.7 L331.7 91.9 L329.6 92.5 L326.4 91.1 L323.5 92.6 L319.6 93.8 L318.0 93.6 L314.1 93.7 L311.6 94.5 L308.7 96.1 L307.1 95.4 L303.9 96.9 L300.4 97.3 L298.0 99.1 L296.6 99.0 L293.6 99.9 L291.1 99.9 L287.9 102.1 L285.5 102.5 L282.7 102.8 L279.1 104.3 L276.7 105.0 L274.4 105.5 L272.5 106.8 L269.1 107.9 L266.4 108.8 L264.0 110.8 L262.7 111.5 L260.3 112.1 L256.8 113.2 L255.5 115.2 L251.9 116.0 L250.3 118.0 L246.9 119.1 L244.6 121.1 L242.8 122.5 L239.7 124.9 L238.4 126.0 L235.4 128.1 L233.7 129.1 L231.8 132.3 L229.1 133.3 L227.1 134.6 L223.8 138.2 L222.1 139.8 L221.0 141.4 L218.4 143.4 L216.3 145.4 L215.1 146.9 L211.7 148.8 L210.5 152.3 L208.4 154.4 L206.9 155.3 L203.6 157.8 L201.8 160.5 L200.7 161.6 L197.9 163.6 L197.8 165.9 L195.2 167.6 L193.2 170.4 L191.0 173.4 L190.1 175.5 L188.5 177.0 L186.8 179.0 L184.5 181.1 L184.6 185.4 L182.8 187.6 L181.0 189.3 L178.6 191.4 L177.8 194.5 L176.8 197.7 L175.0 199.3 L173.1 202.9 L173.4 205.0 L170.6 207.7 L170.3 210.8 L169.0 211.9 L167.9 215.7 L165.8 218.1 L166.0 220.8 L165.1 223.1 L163.8 226.0 L162.2 227.2 L161.8 229.6 L160.0 233.6 L159.8 234.8 L158.6 237.5 L157.2 240.8 L156.6 244.1 L156.7 246.4 L156.6 249.3 L155.5 252.2 L154.0 254.7 L154.6 256.9 L153.0 259.4 L153.6 262.1 L153.5 264.4 L151.8 266.1 Z" fill="#141311" opacity="0.6000000000000001"/><path d="M119.2 261.4 L120.7 259.0 L120.7 256.8 L121.1 254.6 L121.7 251.0 L121.9 248.5 L123.3 246.0 L123.4 242.7 L124.6 238.2 L126.1 234.8 L126.8 231.5 L127.3 229.3 L128.6 226.3 L130.5 223.7 L130.1 218.9 L132.7 217.1 L133.6 213.6 L135.1 209.7 L135.0 207.0 L137.0 203.0 L139.0 200.9 L138.7 196.8 L140.3 194.2 L142.2 191.2 L144.5 188.9 L145.5 186.1 L147.5 183.5 L147.8 180.9 L150.1 176.9 L150.8 175.7 L153.6 172.1 L155.5 169.7 L156.2 167.0 L158.4 165.1 L159.9 161.1 L162.0 158.9 L164.3 156.7 L166.1 153.4 L167.4 151.4 L170.9 148.7 L172.3 146.8 L175.1 144.8 L176.2 142.0 L177.6 138.6 L179.8 136.3 L181.9 133.9 L185.8 131.8 L187.2 128.9 L190.0 127.7 L191.0 125.7 L193.8 123.4 L196.5 120.8 L199.1 119.3 L201.1 117.5 L204.3 115.7 L206.0 113.3 L207.8 111.7 L211.2 109.5 L213.4 108.8 L216.4 106.7 L218.1 104.5 L222.1 101.8 L223.1 100.7 L227.0 99.1 L229.9 95.9 L231.4 93.7 L234.2 92.4 L237.8 90.3 L240.0 87.8 L243.7 86.9 L246.2 85.0 L248.5 83.3 L251.7 80.8 L254.2 81.0 L257.5 79.0 L259.9 78.9 L263.9 77.1 L265.9 76.2 L268.1 75.5 L271.0 73.6 L275.3 73.8 L278.1 74.0 L280.2 72.9 L284.2 71.6 L287.2 70.5 L290.6 70.3 L293.3 68.4 L296.1 68.2 L298.7 66.9 L303.3 66.6 L305.0 65.3 L308.2 64.0 L311.7 64.2 L314.2 62.9 L318.0 63.5 L320.7 63.2 L323.8 61.3 L327.3 61.9 L330.0 61.4 L333.4 61.5 L337.7 61.3 L340.2 60.7 L343.3 60.6 L346.2 60.6 L350.2 60.6 L353.1 59.5 L356.7 60.0 L359.9 59.1 L362.2 60.7 L366.3 59.3 L368.6 60.2 L371.2 60.1 L375.0 60.1 L378.1 60.3 L381.9 59.2 L384.6 59.9 L387.0 59.6 L390.2 59.8 L393.7 61.0 L396.8 61.2 L400.0 61.7 L402.9 62.8 L405.9 63.1 L408.7 63.4 L412.7 64.1 L415.3 64.4 L418.6 66.3 L422.7 67.0 L425.6 68.3 L428.2 68.8 L430.4 68.5 L433.3 71.0 L437.4 71.9 L440.3 73.5 L444.0 74.2 L445.5 74.6 L450.2 76.4 L452.0 77.4 L455.0 78.2 L458.4 79.6 L460.9 80.7 L464.2 82.4 L466.8 82.6 L470.3 84.5 L471.8 85.2 L476.0 87.1 L478.8 87.6 L481.7 90.3 L483.9 91.2 L486.3 93.1 L489.9 94.5 L491.3 95.3 L494.3 96.9 L496.5 98.6 L500.1 100.8 L502.4 102.4 L504.9 105.2 L508.3 106.1 L509.5 108.8 L512.0 110.4 L515.8 112.5 L517.8 114.0 L519.1 115.7 L521.6 118.8 L524.6 120.4 L526.9 122.5 L529.9 125.4 L532.4 127.2 L534.3 129.0 L536.0 131.0 L537.8 133.7 L540.5 135.7 L541.9 138.9 L544.5 142.0 L546.4 144.7 L547.9 146.7 L550.9 149.7 L551.8 152.3 L554.1 155.3 L556.7 156.7 L558.4 160.6 L560.0 162.4 L562.5 166.3 L564.1 169.2 L565.2 170.9 L568.1 174.2 L568.8 176.5 L571.3 178.3 L571.9 182.4 L574.6 183.9 L575.3 188.0 L577.3 190.0 L578.5 193.6 L580.0 196.5 L580.9 199.1 L582.8 202.3 L584.2 204.8 L585.4 207.6 L586.5 210.9 L586.6 214.3 L587.9 217.1 L590.1 219.8 L589.9 223.4 L592.5 227.3 L592.8 229.4 L593.1 233.3 L594.8 236.3 L596.0 239.0 L596.6 242.8 L597.1 247.1 L597.7 249.7 L599.4 252.8 L599.4 256.9 L600.2 258.2 L600.0 261.7 L600.9 263.4 L600.5 265.1 L601.3 264.9 L601.8 263.3 L600.8 261.6 L601.1 258.0 L600.5 256.7 L600.4 252.5 L598.8 249.5 L598.2 246.8 L597.8 242.5 L597.5 238.6 L596.2 235.9 L594.5 232.9 L594.2 228.9 L594.0 226.8 L591.4 222.9 L591.7 219.2 L589.8 216.5 L588.2 213.7 L588.4 210.2 L587.0 206.9 L585.8 204.1 L584.6 201.5 L583.0 198.1 L582.0 195.6 L580.5 192.6 L579.0 189.1 L577.4 187.0 L576.6 182.8 L574.1 181.2 L573.3 177.2 L570.7 175.4 L570.1 173.0 L567.2 169.6 L566.3 167.8 L564.6 164.9 L562.4 160.8 L560.5 159.2 L559.0 155.2 L556.6 153.6 L554.3 150.6 L553.1 148.1 L550.4 144.8 L549.1 142.6 L546.7 140.3 L544.5 136.7 L542.7 133.9 L540.1 131.6 L538.5 128.8 L536.8 126.6 L534.7 124.9 L532.4 122.8 L529.1 120.2 L527.1 117.7 L523.7 116.4 L521.7 112.7 L520.1 111.2 L518.1 109.7 L514.2 107.6 L511.8 105.7 L510.5 103.1 L507.4 101.8 L504.8 98.9 L502.4 97.4 L498.7 95.2 L496.5 93.3 L493.5 91.7 L492.2 90.7 L488.7 89.0 L486.0 87.4 L483.6 86.8 L480.9 83.6 L477.9 83.4 L473.6 81.5 L472.1 80.7 L468.7 78.5 L465.9 78.3 L462.8 76.1 L460.2 75.2 L456.8 73.9 L453.8 72.8 L451.7 72.4 L447.3 69.7 L445.8 69.2 L442.0 68.9 L438.9 67.5 L434.9 66.2 L431.8 64.4 L429.6 64.5 L427.2 63.3 L424.0 62.5 L420.0 61.5 L416.5 60.1 L414.1 58.7 L409.9 58.5 L407.1 57.6 L403.9 57.2 L400.8 56.3 L397.4 56.3 L394.2 55.4 L390.6 54.6 L387.2 54.0 L384.8 54.6 L382.0 54.2 L378.2 54.5 L374.9 54.9 L371.1 54.9 L368.5 55.0 L366.3 53.7 L362.2 54.7 L359.9 54.3 L356.6 55.3 L353.0 54.5 L350.1 54.7 L346.0 54.9 L343.1 55.2 L339.9 55.8 L337.3 55.9 L333.0 55.9 L329.5 56.4 L326.7 57.4 L323.1 56.4 L319.8 57.7 L317.2 59.1 L313.3 58.3 L310.6 59.4 L307.2 59.8 L303.9 60.8 L302.0 61.8 L297.5 62.8 L294.6 63.1 L292.2 64.4 L289.3 65.9 L286.0 66.2 L283.1 67.5 L279.1 68.5 L276.9 69.2 L274.2 69.6 L269.9 69.9 L266.7 70.8 L264.7 72.5 L262.3 72.5 L258.3 74.5 L255.8 74.9 L252.6 77.4 L250.0 77.4 L246.3 79.4 L243.8 81.1 L241.8 83.8 L237.7 84.4 L235.4 86.8 L232.0 89.5 L229.2 90.7 L227.8 93.2 L224.6 96.0 L221.1 98.0 L219.7 98.5 L216.0 101.6 L214.0 103.4 L211.2 105.8 L209.3 106.8 L205.8 108.9 L203.8 110.2 L202.2 112.8 L198.8 114.6 L197.0 116.7 L194.4 118.3 L191.8 121.2 L188.9 123.3 L188.0 125.6 L184.8 126.5 L183.4 129.6 L179.7 132.0 L177.6 134.4 L175.4 136.7 L173.6 140.0 L172.6 142.8 L169.8 144.8 L168.4 146.8 L165.3 149.9 L163.9 151.8 L161.8 154.9 L159.8 157.2 L157.5 159.5 L156.4 163.7 L154.0 165.6 L153.4 168.3 L151.2 170.6 L148.8 174.4 L148.2 175.7 L145.6 179.6 L145.4 182.4 L143.4 185.0 L142.6 187.9 L140.3 190.3 L138.5 193.4 L136.8 196.0 L137.1 200.1 L135.3 202.4 L133.0 206.3 L133.3 209.0 L131.9 213.0 L131.1 216.5 L128.3 218.3 L128.9 223.2 L127.2 225.9 L125.9 228.9 L125.5 231.1 L124.8 234.5 L123.2 237.8 L122.3 242.4 L122.2 245.7 L121.0 248.3 L120.8 250.8 L120.1 254.4 L120.0 256.7 L119.9 258.8 L118.6 261.2 Z" fill="#141311" opacity="0.54"/></g>

</svg>