<svg xmlns="http://www.w3.org/2000/svg" viewBox="0 0 220 240" width="220" height="240"><defs>
<filter id="dry" x="-5%" y="-5%" width="110%" height="110%">
  <feTurbulence type="fractalNoise" baseFrequency="0.9" numOctaves="2" seed="3" result="n"/>
  <feDisplacementMap in="SourceGraphic" in2="n" scale="2.2" xChannelSelector="R" yChannelSelector="G"/>
</filter>
<filter id="grain" x="0" y="0" width="100%" height="100%">
  <feTurbulence type="fractalNoise" baseFrequency="0.75" numOctaves="3" seed="11" stitchTiles="stitch"/>
  <feColorMatrix type="saturate" values="0"/>
  <feComponentTransfer><feFuncA type="linear" slope="0.18"/></feComponentTransfer>
</filter>
<filter id="bleed" x="-5%" y="-5%" width="110%" height="110%">
  <feMorphology operator="dilate" radius="0.6"/>
  <feGaussianBlur stdDeviation="0.35"/>
</filter>
</defs><g filter="url(#dry)"><path d="M86.2 149.2 L72.8 153.3 L74.4 156.8 L67.5 160.5 L61.2 164.0 L60.5 168.2 L50.9 173.7 L53.2 175.1 L38.6 180.1 L49.9 184.5 L42.1 190.3 L29.2 196.9 L31.0 200.3 L29.9 203.2 L35.6 208.5 L23.0 212.0 L32.8 218.3 L24.2 221.6 L23.2 227.3 L27.6 230.9 L36.7 237.8 L13.5 242.8 L13.8 244.7 L17.8 247.1 L10.8 251.4 L206.8 251.4 L200.0 247.1 L207.2 244.7 L206.4 242.8 L186.9 237.8 L189.9 230.9 L193.2 227.3 L192.5 221.6 L189.7 218.3 L196.4 212.0 L182.3 208.5 L190.8 203.2 L189.6 200.3 L188.1 196.9 L175.3 190.3 L166.5 184.5 L178.3 180.1 L163.4 175.1 L171.8 173.7 L155.5 168.2 L154.8 164.0 L156.1 160.5 L145.7 156.8 L147.2 153.3 L131.5 149.2 Z" fill="#141311" opacity="1.0"/><path d="M28.8 247.9 L29.4 243.7 L29.9 241.0 L35.2 236.5 L36.9 231.6 L37.4 224.9 L40.1 218.6 L45.2 213.7 L47.1 208.9 L49.7 204.6 L52.6 197.5 L55.3 194.6 L58.7 191.4 L59.8 189.1 L63.9 186.4 L68.7 181.8 L71.6 181.0 L75.0 178.3 L81.8 176.4 L84.2 173.9 L89.5 170.9 L94.2 170.1 L96.1 167.8 L99.0 167.0 L101.8 163.3 L97.5 154.4 L94.7 157.6 L92.1 158.2 L90.1 160.0 L84.3 158.1 L78.8 161.2 L76.2 164.1 L69.3 166.7 L64.1 167.2 L60.9 169.1 L53.8 172.4 L50.4 178.3 L46.5 180.0 L44.1 186.2 L40.8 189.9 L34.7 196.1 L32.4 201.2 L30.5 206.6 L27.2 212.7 L23.5 218.9 L23.6 225.9 L21.0 230.5 L17.9 235.8 L15.6 237.3 L15.7 241.7 Z" fill="#141311" opacity="1.0"/><path d="M205.1 240.1 L203.2 239.4 L201.5 234.8 L199.1 229.3 L196.6 224.0 L194.7 220.2 L193.8 214.3 L189.1 207.8 L187.4 200.6 L185.0 195.6 L181.7 190.0 L178.8 183.4 L172.9 181.3 L168.5 177.8 L165.6 172.9 L160.9 170.4 L155.0 167.5 L150.5 166.0 L145.7 164.2 L141.2 160.7 L134.9 160.6 L132.0 158.4 L128.0 157.4 L124.4 156.5 L122.2 156.9 L118.4 164.7 L120.6 164.8 L123.7 167.9 L127.3 170.0 L130.6 171.0 L135.8 173.3 L140.3 176.3 L145.0 177.2 L148.0 180.4 L153.7 181.9 L155.9 186.4 L158.4 189.6 L161.4 192.1 L164.6 194.1 L169.1 198.0 L171.2 203.4 L173.6 207.8 L175.9 214.2 L180.4 220.4 L181.1 226.1 L183.7 229.6 L185.2 235.2 L188.3 240.5 L191.1 244.9 L192.1 246.3 Z" fill="#141311" opacity="1.0"/><path d="M100.2 124.2 L96.7 166.4 L126.6 166.4 L122.4 124.2 Z" fill="#141311" opacity="1.0"/><path d="M138.9 96.0 L139.8 98.9 L141.1 103.1 L142.1 107.6 L141.9 111.4 L140.0 114.3 L137.0 116.8 L133.4 119.0 L130.0 121.1 L127.0 123.2 L123.9 125.1 L120.7 126.7 L117.3 128.2 L113.6 129.5 L109.5 130.9 L105.5 131.6 L102.0 131.2 L99.0 129.2 L96.5 126.0 L94.0 122.5 L91.3 119.5 L88.0 117.4 L84.4 115.7 L80.9 113.9 L78.0 111.4 L75.2 108.0 L72.6 104.0 L70.9 99.8 L70.6 96.0 L72.8 92.8 L76.7 89.9 L81.0 86.9 L84.0 83.5 L85.0 79.2 L84.9 74.3 L84.9 69.7 L86.1 66.1 L89.1 63.6 L93.2 61.9 L97.6 60.9 L101.9 60.4 L105.7 60.6 L109.6 61.6 L113.4 62.9 L117.3 64.0 L121.6 64.4 L126.1 64.6 L130.2 65.2 L133.2 66.9 L134.8 70.2 L135.4 74.6 L135.6 79.3 L136.0 83.5 L136.8 87.2 L137.6 90.8 L138.3 93.8 L138.9 96.0 Z" fill="#141311" opacity="1.0"/><path d="M123.3 114.0 L124.4 116.1 L125.9 119.2 L127.2 122.5 L127.4 125.3 L126.1 127.4 L123.7 129.3 L121.0 130.8 L118.3 132.0 L115.8 132.6 L113.3 132.9 L110.7 132.9 L108.3 132.9 L106.1 132.9 L104.0 132.9 L101.9 132.8 L99.8 132.6 L97.4 132.4 L95.0 132.2 L92.7 131.7 L90.5 130.9 L88.7 129.5 L87.0 127.8 L85.4 125.8 L83.8 123.7 L82.0 121.4 L80.0 118.9 L78.5 116.4 L78.1 114.0 L79.3 111.8 L81.7 109.8 L84.4 107.7 L86.4 105.5 L87.4 103.1 L87.9 100.4 L88.5 97.9 L89.6 96.0 L91.6 94.7 L94.0 93.9 L96.6 93.4 L99.2 93.0 L101.6 92.6 L104.0 92.3 L106.5 92.1 L109.0 92.1 L111.9 92.2 L115.0 92.3 L117.8 92.8 L119.9 94.1 L120.9 96.4 L121.0 99.5 L121.0 102.9 L121.1 105.8 L121.6 108.3 L122.3 110.6 L122.9 112.6 L123.3 114.0 Z" fill="#141311" opacity="1.0"/><path d="M81.3 74.9 L83.0 75.2 L84.1 73.6 L87.0 72.1 L88.9 69.7 L91.9 68.3 L94.7 66.3 L97.8 65.4 L100.8 63.6 L103.2 61.4 L106.0 60.5 L108.4 60.1 L110.8 61.6 L112.2 61.8 L114.3 62.5 L116.5 62.5 L119.1 63.7 L121.7 64.2 L124.5 67.1 L127.2 68.1 L129.6 69.8 L132.8 70.9 L134.5 72.9 L137.1 73.7 L138.7 74.7 L140.2 72.4 L139.1 70.9 L137.4 69.2 L135.8 67.2 L133.8 64.6 L130.8 63.4 L128.4 61.9 L125.9 58.0 L123.1 57.0 L120.9 53.6 L118.0 52.7 L114.2 52.4 L110.8 51.2 L106.5 50.9 L103.0 52.3 L99.3 53.7 L97.0 57.2 L93.2 58.5 L90.5 60.5 L87.5 62.6 L85.4 65.3 L83.3 67.5 L81.1 69.8 L80.8 72.1 L79.5 72.2 Z" fill="#141311" opacity="1.0"/><path d="M81.2 102.0 L81.1 102.4 L80.9 102.9 L80.6 103.5 L80.3 104.1 L80.0 104.5 L79.6 104.9 L79.2 105.2 L78.8 105.5 L78.4 105.7 L77.9 105.8 L77.4 105.8 L76.9 106.0 L76.4 106.4 L75.9 106.9 L75.3 107.3 L74.7 107.5 L74.2 107.4 L73.6 107.2 L73.0 106.8 L72.5 106.4 L72.0 106.0 L71.5 105.6 L71.1 105.1 L70.8 104.5 L70.6 103.9 L70.5 103.3 L70.5 102.6 L70.6 102.0 L70.8 101.4 L71.0 100.9 L71.3 100.4 L71.6 99.9 L71.9 99.4 L72.3 99.0 L72.7 98.6 L73.1 98.3 L73.5 98.1 L74.0 97.9 L74.5 97.8 L75.0 97.7 L75.5 97.5 L76.0 97.3 L76.6 97.2 L77.1 97.2 L77.6 97.4 L78.1 97.6 L78.5 97.9 L79.0 98.2 L79.6 98.5 L80.2 98.8 L80.8 99.1 L81.2 99.5 L81.4 100.1 L81.4 100.8 L81.3 101.5 L81.2 102.0 Z" fill="#2540C8" opacity="1.0"/><path d="M118.3 126.0 L118.6 127.4 L119.2 129.3 L119.5 131.5 L119.4 133.4 L118.8 135.1 L117.6 136.8 L116.3 138.3 L114.8 139.5 L113.2 140.6 L111.5 141.4 L109.6 142.1 L107.8 142.5 L105.9 142.8 L103.9 142.9 L102.0 142.8 L100.3 142.2 L98.9 141.1 L97.8 139.6 L96.7 137.9 L95.7 136.4 L94.6 135.3 L93.5 134.3 L92.4 133.2 L91.4 132.1 L90.4 130.7 L89.3 129.2 L88.4 127.6 L87.9 126.0 L87.8 124.3 L88.0 122.5 L88.5 120.6 L89.0 118.8 L89.6 116.9 L90.3 114.8 L91.2 112.9 L92.4 111.4 L94.0 110.3 L96.0 109.4 L98.1 108.9 L100.1 108.8 L101.9 109.2 L103.8 110.0 L105.5 111.1 L107.2 112.0 L108.7 112.8 L110.0 113.5 L111.3 114.3 L112.7 115.1 L114.6 115.8 L116.7 116.4 L118.6 117.2 L119.8 118.4 L120.0 120.2 L119.5 122.4 L118.8 124.5 L118.3 126.0 Z" fill="#141311" opacity="1.0"/></g></svg>