<svg xmlns="http://www.w3.org/2000/svg" viewBox="0 0 240 220" width="240" height="220"><defs>
<filter id="dry" x="-5%" y="-5%" width="110%" height="110%">
  <feTurbulence type="fractalNoise" baseFrequency="0.9" numOctaves="2" seed="3" result="n"/>
  <feDisplacementMap in="SourceGraphic" in2="n" scale="2.2" xChannelSelector="R" yChannelSelector="G"/>
</filter>
<filter id="grain" x="0" y="0" width="100%" height="100%">
  <feTurbulence type="fractalNoise" baseFrequency="0.75" numOctaves="3" seed="11" stitchTiles="stitch"/>
  <feColorMatrix type="saturate" values="0"/>
  <feComponentTransfer><feFuncA type="linear" slope="0.18"/></feComponentTransfer>
</filter>
<filter id="bleed" x="-5%" y="-5%" width="110%" height="110%">
  <feMorphology operator="dilate" radius="0.6"/>
  <feGaussianBlur stdDeviation="0.35"/>
</filter>
</defs><g filter="url(#dry)"><path d="M118.4 117.6 L120.9 117.6 L121.4 115.8 L121.7 114.5 L125.0 112.8 L126.2 112.3 L127.2 109.7 L128.2 106.6 L131.6 104.4 L134.0 102.2 L134.8 100.9 L135.8 98.5 L137.8 96.0 L138.0 93.3 L139.0 91.3 L139.7 88.6 L141.5 86.1 L141.2 84.1 L142.0 81.1 L141.5 78.2 L142.4 76.1 L142.3 74.1 L141.4 72.4 L142.0 71.7 L142.6 70.0 L141.3 68.2 L143.2 67.3 L143.9 66.4 L144.0 66.0 L144.1 64.9 L144.8 64.1 L144.2 61.9 L144.6 61.8 L144.9 61.5 L146.3 60.0 L146.5 58.6 L146.4 57.9 L142.0 55.0 L142.0 55.5 L141.6 56.4 L140.3 57.9 L139.7 58.0 L139.0 58.1 L139.2 60.1 L137.6 60.6 L136.6 61.6 L136.6 62.6 L135.2 63.6 L133.8 65.3 L133.1 67.0 L133.0 69.7 L132.8 71.0 L131.7 72.8 L131.8 75.0 L131.2 77.1 L131.0 79.9 L131.5 82.8 L130.7 84.4 L130.3 86.7 L129.5 88.8 L129.0 90.2 L129.1 92.2 L128.5 94.6 L127.3 96.3 L126.2 97.0 L124.2 99.2 L122.3 102.2 L120.5 104.4 L119.6 107.0 L119.1 108.0 L116.6 110.4 L116.3 111.8 L115.3 113.3 L114.3 114.5 Z" fill="#F7F4EE" opacity="1.0"/><path d="M124.0 115.0 L124.7 114.5 L125.6 114.4 L127.8 111.9 L128.2 110.1 L131.2 109.5 L132.7 107.4 L135.0 104.3 L135.8 103.3 L138.6 100.1 L139.1 99.3 L141.3 96.1 L142.2 94.1 L143.6 92.5 L143.8 90.5 L144.0 88.3 L143.7 86.6 L144.0 83.7 L144.7 82.5 L143.3 79.8 L143.3 77.4 L144.0 75.7 L144.7 74.3 L143.9 73.2 L144.0 72.6 L141.7 72.4 L141.1 73.0 L141.6 74.2 L140.9 75.6 L139.9 77.2 L139.4 79.6 L140.1 82.2 L138.8 83.2 L138.9 85.9 L138.9 87.3 L138.4 89.1 L138.2 90.6 L136.7 91.5 L135.8 92.9 L133.8 95.7 L134.2 96.8 L131.1 99.5 L131.1 101.1 L128.6 103.9 L127.6 106.3 L125.3 107.5 L124.4 108.8 L122.9 112.0 L121.8 112.0 L122.0 113.3 Z" fill="#F7F4EE" opacity="0.85"/><path d="M117.8 119.5 L118.5 118.9 L122.1 120.1 L124.3 121.8 L128.1 122.0 L132.8 124.4 L136.3 125.7 L140.0 126.0 L142.8 129.0 L146.0 130.0 L148.7 130.7 L150.9 133.9 L151.3 133.9 L152.3 136.7 L151.4 137.7 L151.6 141.1 L151.5 143.0 L148.9 147.5 L147.3 150.6 L145.6 154.0 L145.1 157.0 L143.6 160.4 L143.6 164.7 L141.4 166.3 L141.2 169.7 L142.5 171.0 L143.3 174.0 L144.8 174.0 L145.7 175.9 L148.8 176.4 L149.6 177.1 L152.1 176.6 L153.0 177.8 L154.4 177.7 L155.5 177.2 L156.3 176.3 L157.7 177.8 L158.4 175.9 L156.9 174.2 L155.9 174.4 L154.8 174.6 L153.4 174.7 L152.7 173.2 L150.5 173.2 L150.2 172.3 L147.8 172.1 L147.6 170.7 L147.0 171.3 L146.4 169.6 L146.4 169.4 L146.0 167.2 L148.2 166.3 L148.1 162.2 L149.9 159.2 L151.1 156.5 L152.7 153.1 L154.6 149.8 L156.8 144.8 L156.8 142.4 L157.5 138.2 L158.5 135.8 L156.3 131.6 L155.8 129.5 L152.1 126.3 L148.8 125.3 L145.6 123.2 L142.7 119.7 L138.3 120.3 L135.2 117.5 L130.2 115.6 L126.5 115.1 L124.3 113.5 L120.9 112.5 L120.4 113.1 Z" fill="#F7F4EE" opacity="1.0"/><path d="M116.0 114.0 L114.7 115.8 L112.2 117.7 L111.1 121.7 L108.4 124.3 L105.7 129.5 L102.4 133.1 L100.6 135.6 L97.8 139.7 L94.5 144.5 L91.5 147.2 L89.7 150.6 L87.5 152.8 L84.9 156.2 L82.2 157.7 L78.6 159.7 L77.8 161.6 L75.1 164.2 L73.5 165.5 L71.0 167.1 L68.4 168.2 L67.1 170.6 L63.7 172.0 L62.1 172.8 L60.7 174.4 L59.3 175.9 L57.3 176.6 L55.8 177.9 L55.5 178.4 L53.7 179.7 L53.4 179.5 L53.2 181.1 L52.4 181.1 L50.7 182.8 L49.8 182.5 L50.0 183.3 L48.8 183.2 L49.7 184.7 L51.0 184.9 L50.8 184.3 L51.8 184.7 L53.6 183.1 L54.6 183.5 L54.8 181.7 L55.1 182.0 L57.0 180.7 L57.8 180.8 L59.4 179.6 L61.3 178.7 L62.8 177.2 L64.5 176.2 L66.2 175.7 L69.5 174.1 L70.6 171.3 L73.3 170.3 L76.1 169.0 L77.6 167.4 L80.6 165.1 L81.9 163.6 L85.6 161.4 L88.3 159.7 L90.9 156.1 L93.7 154.0 L95.6 150.5 L98.1 147.4 L102.2 143.1 L105.0 139.0 L106.9 136.4 L110.6 133.2 L113.4 128.0 L116.5 125.6 L117.8 121.8 L120.2 119.9 L121.8 118.4 Z" fill="#F7F4EE" opacity="0.9"/><path d="M136.1 69.8 L136.6 72.1 L139.0 74.5 L140.3 77.3 L141.9 80.3 L144.3 83.3 L145.7 86.4 L147.1 89.9 L149.4 92.9 L150.5 94.5 L153.0 96.7 L154.4 98.9 L156.9 99.4 L159.9 99.9 L161.5 100.2 L163.5 97.8 L164.7 96.4 L166.5 93.6 L167.4 91.7 L169.7 89.3 L169.7 86.2 L170.8 84.5 L171.0 81.7 L171.7 79.9 L172.9 79.6 L171.4 78.6 L170.0 79.0 L168.7 80.5 L168.2 83.2 L166.8 84.7 L166.8 87.8 L164.5 90.1 L163.3 91.6 L161.6 94.0 L160.8 95.1 L158.9 96.2 L158.9 95.4 L158.1 95.5 L156.9 95.5 L156.3 93.7 L154.0 91.9 L153.1 90.4 L151.2 87.4 L150.0 83.9 L148.3 81.1 L146.5 77.8 L144.8 74.8 L143.3 72.2 L140.5 69.8 L140.4 67.1 Z" fill="#F7F4EE" opacity="1.0"/><path d="M136.2 66.5 L135.2 68.4 L133.0 69.1 L129.0 69.4 L127.2 71.3 L123.2 74.5 L121.1 76.4 L117.7 77.2 L113.6 79.1 L110.3 82.3 L108.2 84.1 L106.0 86.1 L104.4 88.7 L101.9 89.7 L99.2 92.1 L97.8 93.7 L96.4 97.0 L97.0 98.7 L94.5 100.9 L94.2 103.6 L94.0 104.6 L93.5 106.9 L93.4 108.6 L91.8 108.2 L90.9 110.3 L92.3 111.0 L93.5 109.0 L95.1 109.3 L95.7 107.8 L96.5 105.7 L96.4 104.6 L97.0 102.1 L99.5 100.1 L99.1 98.6 L100.6 95.6 L101.8 94.1 L104.5 92.1 L106.7 91.1 L108.5 89.2 L110.7 87.5 L112.6 85.7 L115.9 82.7 L119.7 80.4 L123.4 80.2 L125.5 78.3 L129.4 75.0 L131.3 73.3 L135.1 72.6 L137.3 71.9 L138.8 70.6 Z" fill="#F7F4EE" opacity="0.8"/><path d="M160.3 41.0 L160.3 41.8 L160.2 43.0 L160.1 44.3 L159.8 45.5 L159.3 46.6 L158.8 47.7 L158.1 48.7 L157.2 49.4 L156.2 49.7 L154.9 49.7 L153.7 49.6 L152.5 49.6 L151.4 50.0 L150.3 50.5 L149.2 50.9 L148.2 51.1 L147.1 50.9 L146.0 50.4 L145.0 49.8 L144.1 49.1 L143.3 48.2 L142.6 47.3 L142.1 46.2 L141.8 45.2 L141.8 44.2 L142.1 43.2 L142.4 42.1 L142.5 41.0 L142.1 39.8 L141.5 38.6 L140.9 37.4 L140.8 36.3 L141.3 35.5 L142.3 34.7 L143.4 34.0 L144.5 33.4 L145.4 32.9 L146.4 32.5 L147.4 32.2 L148.4 31.9 L149.5 31.4 L150.7 30.9 L151.9 30.5 L152.9 30.6 L153.7 31.2 L154.4 32.3 L155.0 33.5 L155.6 34.6 L156.1 35.4 L156.6 36.1 L157.1 36.8 L157.6 37.6 L158.3 38.5 L159.1 39.5 L159.8 40.4 L160.3 41.0 Z" fill="#F7F4EE" opacity="1.0"/></g></svg>