<svg xmlns="http://www.w3.org/2000/svg" viewBox="0 0 1920 220" width="1920" height="220"><defs>
<filter id="dry" x="-5%" y="-5%" width="110%" height="110%">
  <feTurbulence type="fractalNoise" baseFrequency="0.9" numOctaves="2" seed="3" result="n"/>
  <feDisplacementMap in="SourceGraphic" in2="n" scale="2.2" xChannelSelector="R" yChannelSelector="G"/>
</filter>
<filter id="grain" x="0" y="0" width="100%" height="100%">
  <feTurbulence type="fractalNoise" baseFrequency="0.75" numOctaves="3" seed="11" stitchTiles="stitch"/>
  <feColorMatrix type="saturate" values="0"/>
  <feComponentTransfer><feFuncA type="linear" slope="0.18"/></feComponentTransfer>
</filter>
<filter id="bleed" x="-5%" y="-5%" width="110%" height="110%">
  <feMorphology operator="dilate" radius="0.6"/>
  <feGaussianBlur stdDeviation="0.35"/>
</filter>
</defs><g filter="url(#dry)"><g transform="translate(0 0)"><path d="M117.0 120.6 L119.4 120.6 L119.9 118.8 L120.1 117.5 L123.4 115.7 L124.5 115.2 L125.5 112.6 L126.4 109.6 L129.7 107.3 L132.0 105.1 L132.7 103.8 L133.7 101.4 L135.6 98.9 L135.7 96.2 L136.6 94.2 L137.3 91.5 L139.0 89.0 L138.6 86.9 L139.3 84.0 L138.9 81.0 L139.7 79.0 L139.5 76.9 L138.6 75.3 L139.1 74.5 L139.6 72.8 L138.3 71.1 L140.2 70.1 L140.8 69.3 L140.8 68.8 L140.9 67.7 L141.5 66.9 L140.8 64.8 L141.1 64.6 L141.4 64.4 L142.7 62.8 L142.8 61.5 L142.8 60.8 L138.1 58.1 L138.2 58.6 L137.8 59.5 L136.5 61.0 L136.0 61.2 L135.4 61.3 L135.7 63.2 L134.1 63.8 L133.2 64.8 L133.3 65.7 L132.0 66.8 L130.7 68.5 L130.0 70.2 L130.0 72.8 L129.9 74.1 L128.9 75.9 L129.0 78.1 L128.5 80.3 L128.3 83.1 L129.0 86.0 L128.2 87.5 L127.8 89.9 L127.1 91.9 L126.6 93.3 L126.8 95.3 L126.2 97.7 L125.1 99.4 L124.1 100.1 L122.2 102.3 L120.3 105.2 L118.6 107.5 L117.7 110.0 L117.3 111.0 L114.9 113.4 L114.7 114.8 L113.7 116.3 L112.8 117.5 Z" fill="#141311" opacity="1.0"/><path d="M122.5 118.0 L123.2 117.5 L124.1 117.3 L126.2 114.9 L126.6 113.1 L129.5 112.5 L130.9 110.3 L133.2 107.3 L133.9 106.2 L136.6 103.0 L137.0 102.2 L139.2 99.1 L140.0 97.0 L141.3 95.4 L141.5 93.4 L141.6 91.2 L141.2 89.5 L141.4 86.6 L142.1 85.4 L140.5 82.7 L140.5 80.3 L141.2 78.6 L141.8 77.3 L140.9 76.1 L141.0 75.6 L138.7 75.4 L138.2 76.1 L138.7 77.3 L138.0 78.7 L137.0 80.3 L136.6 82.7 L137.4 85.2 L136.2 86.3 L136.3 89.0 L136.5 90.3 L136.0 92.2 L135.9 93.7 L134.4 94.6 L133.6 96.0 L131.6 98.8 L132.2 99.9 L129.1 102.6 L129.1 104.1 L126.7 106.9 L125.8 109.4 L123.6 110.5 L122.7 111.9 L121.3 115.0 L120.3 115.1 L120.5 116.4 Z" fill="#141311" opacity="0.85"/><path d="M114.5 120.9 L114.2 121.4 L116.4 124.0 L117.0 127.4 L119.1 129.6 L121.9 134.0 L123.8 137.8 L125.5 140.0 L126.6 145.3 L128.6 148.5 L130.1 150.9 L131.4 155.5 L131.5 157.2 L132.4 161.2 L131.5 163.1 L131.9 166.9 L132.1 169.1 L130.1 173.7 L129.2 176.7 L128.3 179.8 L128.6 182.5 L128.0 185.6 L128.8 189.7 L127.3 191.1 L127.8 194.4 L129.7 195.4 L131.2 198.2 L133.2 197.7 L134.6 199.3 L138.0 199.3 L139.1 199.7 L142.0 198.9 L143.1 199.7 L144.9 199.3 L146.2 198.6 L147.4 197.5 L149.0 198.8 L149.2 196.9 L147.4 195.3 L146.1 195.8 L144.7 196.2 L143.0 196.6 L141.9 195.4 L139.2 195.6 L138.4 195.0 L135.5 195.0 L134.9 193.8 L133.9 194.5 L133.0 192.9 L132.7 192.7 L132.0 190.8 L133.7 190.1 L132.8 186.4 L133.8 183.6 L134.2 181.2 L135.0 178.0 L136.1 175.0 L137.6 170.1 L137.2 167.6 L137.6 163.4 L138.7 160.8 L137.0 156.3 L137.8 153.7 L135.4 149.0 L133.7 146.3 L132.5 142.5 L131.6 137.0 L128.9 135.1 L128.3 130.6 L125.0 126.3 L123.2 124.0 L122.5 120.6 L120.3 118.2 L120.7 117.8 Z" fill="#141311" opacity="1.0"/><path d="M114.5 116.9 L113.5 118.3 L111.3 119.9 L110.5 123.4 L108.2 125.6 L105.9 130.2 L103.1 133.1 L101.8 134.8 L99.5 137.8 L96.6 141.4 L94.3 142.6 L93.1 144.3 L91.6 144.6 L90.0 145.8 L88.1 144.8 L85.1 143.8 L84.2 142.6 L81.6 141.7 L80.3 139.5 L77.6 137.5 L75.0 135.2 L74.0 134.3 L70.6 132.8 L68.7 131.0 L66.6 130.6 L64.8 130.8 L62.5 130.8 L60.7 131.7 L60.1 132.2 L58.2 133.8 L57.8 133.9 L57.5 136.0 L56.7 136.5 L55.0 138.7 L54.0 138.8 L54.3 139.8 L53.2 139.8 L54.3 141.1 L55.6 141.2 L55.5 140.1 L56.6 140.1 L58.5 138.1 L59.5 137.9 L59.7 135.8 L59.9 135.8 L61.6 134.6 L62.2 134.9 L63.4 134.3 L64.9 134.3 L65.9 134.0 L66.8 134.7 L68.1 136.4 L71.3 137.5 L72.5 137.9 L74.9 140.4 L77.4 142.7 L79.0 144.9 L81.7 146.2 L82.7 148.3 L86.6 149.5 L89.7 150.6 L92.8 149.2 L95.7 148.9 L97.6 146.8 L99.9 144.8 L103.6 141.5 L106.1 138.3 L107.5 136.5 L110.8 133.8 L113.2 129.2 L115.9 127.3 L116.8 123.9 L118.9 122.6 L120.2 121.5 Z" fill="#141311" opacity="0.9"/><path d="M132.9 72.3 L133.1 74.9 L135.1 77.6 L135.9 80.7 L136.9 84.0 L138.7 87.5 L139.4 91.0 L140.2 95.0 L141.9 98.4 L142.4 100.4 L144.3 103.1 L145.3 105.7 L147.5 106.7 L150.3 107.7 L152.0 108.5 L154.2 106.4 L155.5 105.3 L157.5 102.8 L158.6 101.1 L161.2 99.0 L161.4 96.1 L162.7 94.6 L163.2 92.0 L164.0 90.4 L165.3 90.2 L163.9 89.0 L162.4 89.2 L161.1 90.6 L160.3 93.0 L158.7 94.3 L158.5 97.1 L156.0 99.2 L154.6 100.4 L152.7 102.5 L151.9 103.3 L150.1 104.2 L150.3 103.2 L149.6 103.2 L148.6 103.0 L148.2 100.9 L146.3 98.6 L146.0 96.8 L144.6 93.4 L144.2 89.4 L143.0 86.1 L141.9 82.5 L140.8 79.2 L139.8 76.1 L137.4 73.4 L137.6 70.6 Z" fill="#141311" opacity="1.0"/><path d="M132.9 69.7 L132.3 71.8 L130.5 72.7 L126.9 73.2 L125.6 75.4 L122.1 78.8 L120.6 81.0 L117.9 82.1 L114.3 84.4 L111.6 87.8 L110.0 89.9 L108.3 92.2 L107.3 94.9 L105.1 96.1 L102.8 98.6 L101.7 100.4 L100.6 103.9 L101.5 105.7 L99.3 108.0 L99.3 110.8 L99.3 111.9 L99.0 114.3 L99.1 116.1 L97.6 115.7 L96.9 117.9 L98.3 118.5 L99.4 116.3 L100.8 116.6 L101.2 114.9 L101.9 112.7 L101.6 111.5 L101.9 108.9 L104.2 106.7 L103.5 105.1 L104.8 101.9 L105.6 100.2 L108.1 98.0 L109.9 96.9 L111.3 94.8 L113.0 92.9 L114.4 90.8 L117.1 87.4 L120.4 84.9 L123.4 84.4 L125.0 82.2 L128.3 78.7 L129.8 76.7 L133.0 75.7 L134.9 74.9 L136.1 73.4 Z" fill="#141311" opacity="0.8"/><path d="M155.8 44.0 L155.8 44.8 L155.7 46.0 L155.6 47.3 L155.3 48.5 L154.8 49.6 L154.3 50.7 L153.6 51.7 L152.7 52.4 L151.7 52.7 L150.4 52.7 L149.2 52.6 L148.0 52.6 L146.9 53.0 L145.8 53.5 L144.7 53.9 L143.7 54.1 L142.6 53.9 L141.5 53.4 L140.5 52.8 L139.6 52.1 L138.8 51.2 L138.1 50.3 L137.6 49.2 L137.3 48.2 L137.3 47.2 L137.6 46.2 L137.9 45.1 L138.0 44.0 L137.6 42.8 L137.0 41.6 L136.4 40.4 L136.3 39.3 L136.8 38.5 L137.8 37.7 L138.9 37.0 L140.0 36.4 L140.9 35.9 L141.9 35.5 L142.9 35.2 L143.9 34.9 L145.0 34.4 L146.2 33.9 L147.4 33.5 L148.4 33.6 L149.2 34.2 L149.9 35.3 L150.5 36.5 L151.1 37.6 L151.6 38.4 L152.1 39.1 L152.6 39.8 L153.1 40.6 L153.8 41.5 L154.6 42.5 L155.3 43.4 L155.8 44.0 Z" fill="#141311" opacity="1.0"/></g><g transform="translate(240 0)"><path d="M118.4 117.6 L120.9 117.6 L121.4 115.8 L121.7 114.5 L125.0 112.8 L126.2 112.3 L127.2 109.7 L128.2 106.6 L131.6 104.4 L134.0 102.2 L134.8 100.9 L135.8 98.5 L137.8 96.0 L138.0 93.3 L139.0 91.3 L139.7 88.6 L141.5 86.1 L141.2 84.1 L142.0 81.1 L141.5 78.2 L142.4 76.1 L142.3 74.1 L141.4 72.4 L142.0 71.7 L142.6 70.0 L141.3 68.2 L143.2 67.3 L143.9 66.4 L144.0 66.0 L144.1 64.9 L144.8 64.1 L144.2 61.9 L144.6 61.8 L144.9 61.5 L146.3 60.0 L146.5 58.6 L146.4 57.9 L142.0 55.0 L142.0 55.5 L141.6 56.4 L140.3 57.9 L139.7 58.0 L139.0 58.1 L139.2 60.1 L137.6 60.6 L136.6 61.6 L136.6 62.6 L135.2 63.6 L133.8 65.3 L133.1 67.0 L133.0 69.7 L132.8 71.0 L131.7 72.8 L131.8 75.0 L131.2 77.1 L131.0 79.9 L131.5 82.8 L130.7 84.4 L130.3 86.7 L129.5 88.8 L129.0 90.2 L129.1 92.2 L128.5 94.6 L127.3 96.3 L126.2 97.0 L124.2 99.2 L122.3 102.2 L120.5 104.4 L119.6 107.0 L119.1 108.0 L116.6 110.4 L116.3 111.8 L115.3 113.3 L114.3 114.5 Z" fill="#141311" opacity="1.0"/><path d="M124.0 115.0 L124.7 114.5 L125.6 114.4 L127.8 111.9 L128.2 110.1 L131.2 109.5 L132.7 107.4 L135.0 104.3 L135.8 103.3 L138.6 100.1 L139.1 99.3 L141.3 96.1 L142.2 94.1 L143.6 92.5 L143.8 90.5 L144.0 88.3 L143.7 86.6 L144.0 83.7 L144.7 82.5 L143.3 79.8 L143.3 77.4 L144.0 75.7 L144.7 74.3 L143.9 73.2 L144.0 72.6 L141.7 72.4 L141.1 73.0 L141.6 74.2 L140.9 75.6 L139.9 77.2 L139.4 79.6 L140.1 82.2 L138.8 83.2 L138.9 85.9 L138.9 87.3 L138.4 89.1 L138.2 90.6 L136.7 91.5 L135.8 92.9 L133.8 95.7 L134.2 96.8 L131.1 99.5 L131.1 101.1 L128.6 103.9 L127.6 106.3 L125.3 107.5 L124.4 108.8 L122.9 112.0 L121.8 112.0 L122.0 113.3 Z" fill="#141311" opacity="0.85"/><path d="M117.8 119.5 L118.5 118.9 L122.1 120.1 L124.3 121.8 L128.1 122.0 L132.8 124.4 L136.3 125.7 L140.0 126.0 L142.8 129.0 L146.0 130.0 L148.7 130.7 L150.9 133.9 L151.3 133.9 L152.3 136.7 L151.4 137.7 L151.6 141.1 L151.5 143.0 L148.9 147.5 L147.3 150.6 L145.6 154.0 L145.1 157.0 L143.6 160.4 L143.6 164.7 L141.4 166.3 L141.2 169.7 L142.5 171.0 L143.3 174.0 L144.8 174.0 L145.7 175.9 L148.8 176.4 L149.6 177.1 L152.1 176.6 L153.0 177.8 L154.4 177.7 L155.5 177.2 L156.3 176.3 L157.7 177.8 L158.4 175.9 L156.9 174.2 L155.9 174.4 L154.8 174.6 L153.4 174.7 L152.7 173.2 L150.5 173.2 L150.2 172.3 L147.8 172.1 L147.6 170.7 L147.0 171.3 L146.4 169.6 L146.4 169.4 L146.0 167.2 L148.2 166.3 L148.1 162.2 L149.9 159.2 L151.1 156.5 L152.7 153.1 L154.6 149.8 L156.8 144.8 L156.8 142.4 L157.5 138.2 L158.5 135.8 L156.3 131.6 L155.8 129.5 L152.1 126.3 L148.8 125.3 L145.6 123.2 L142.7 119.7 L138.3 120.3 L135.2 117.5 L130.2 115.6 L126.5 115.1 L124.3 113.5 L120.9 112.5 L120.4 113.1 Z" fill="#141311" opacity="1.0"/><path d="M116.0 114.0 L114.7 115.8 L112.2 117.7 L111.1 121.7 L108.4 124.3 L105.7 129.5 L102.4 133.1 L100.6 135.6 L97.8 139.7 L94.5 144.5 L91.5 147.2 L89.7 150.6 L87.5 152.8 L84.9 156.2 L82.2 157.7 L78.6 159.7 L77.8 161.6 L75.1 164.2 L73.5 165.5 L71.0 167.1 L68.4 168.2 L67.1 170.6 L63.7 172.0 L62.1 172.8 L60.7 174.4 L59.3 175.9 L57.3 176.6 L55.8 177.9 L55.5 178.4 L53.7 179.7 L53.4 179.5 L53.2 181.1 L52.4 181.1 L50.7 182.8 L49.8 182.5 L50.0 183.3 L48.8 183.2 L49.7 184.7 L51.0 184.9 L50.8 184.3 L51.8 184.7 L53.6 183.1 L54.6 183.5 L54.8 181.7 L55.1 182.0 L57.0 180.7 L57.8 180.8 L59.4 179.6 L61.3 178.7 L62.8 177.2 L64.5 176.2 L66.2 175.7 L69.5 174.1 L70.6 171.3 L73.3 170.3 L76.1 169.0 L77.6 167.4 L80.6 165.1 L81.9 163.6 L85.6 161.4 L88.3 159.7 L90.9 156.1 L93.7 154.0 L95.6 150.5 L98.1 147.4 L102.2 143.1 L105.0 139.0 L106.9 136.4 L110.6 133.2 L113.4 128.0 L116.5 125.6 L117.8 121.8 L120.2 119.9 L121.8 118.4 Z" fill="#141311" opacity="0.9"/><path d="M136.1 69.8 L136.6 72.1 L139.0 74.5 L140.3 77.3 L141.9 80.3 L144.3 83.3 L145.7 86.4 L147.1 89.9 L149.4 92.9 L150.5 94.5 L153.0 96.7 L154.4 98.9 L156.9 99.4 L159.9 99.9 L161.5 100.2 L163.5 97.8 L164.7 96.4 L166.5 93.6 L167.4 91.7 L169.7 89.3 L169.7 86.2 L170.8 84.5 L171.0 81.7 L171.7 79.9 L172.9 79.6 L171.4 78.6 L170.0 79.0 L168.7 80.5 L168.2 83.2 L166.8 84.7 L166.8 87.8 L164.5 90.1 L163.3 91.6 L161.6 94.0 L160.8 95.1 L158.9 96.2 L158.9 95.4 L158.1 95.5 L156.9 95.5 L156.3 93.7 L154.0 91.9 L153.1 90.4 L151.2 87.4 L150.0 83.9 L148.3 81.1 L146.5 77.8 L144.8 74.8 L143.3 72.2 L140.5 69.8 L140.4 67.1 Z" fill="#141311" opacity="1.0"/><path d="M136.2 66.5 L135.2 68.4 L133.0 69.1 L129.0 69.4 L127.2 71.3 L123.2 74.5 L121.1 76.4 L117.7 77.2 L113.6 79.1 L110.3 82.3 L108.2 84.1 L106.0 86.1 L104.4 88.7 L101.9 89.7 L99.2 92.1 L97.8 93.7 L96.4 97.0 L97.0 98.7 L94.5 100.9 L94.2 103.6 L94.0 104.6 L93.5 106.9 L93.4 108.6 L91.8 108.2 L90.9 110.3 L92.3 111.0 L93.5 109.0 L95.1 109.3 L95.7 107.8 L96.5 105.7 L96.4 104.6 L97.0 102.1 L99.5 100.1 L99.1 98.6 L100.6 95.6 L101.8 94.1 L104.5 92.1 L106.7 91.1 L108.5 89.2 L110.7 87.5 L112.6 85.7 L115.9 82.7 L119.7 80.4 L123.4 80.2 L125.5 78.3 L129.4 75.0 L131.3 73.3 L135.1 72.6 L137.3 71.9 L138.8 70.6 Z" fill="#141311" opacity="0.8"/><path d="M160.3 41.0 L160.3 41.8 L160.2 43.0 L160.1 44.3 L159.8 45.5 L159.3 46.6 L158.8 47.7 L158.1 48.7 L157.2 49.4 L156.2 49.7 L154.9 49.7 L153.7 49.6 L152.5 49.6 L151.4 50.0 L150.3 50.5 L149.2 50.9 L148.2 51.1 L147.1 50.9 L146.0 50.4 L145.0 49.8 L144.1 49.1 L143.3 48.2 L142.6 47.3 L142.1 46.2 L141.8 45.2 L141.8 44.2 L142.1 43.2 L142.4 42.1 L142.5 41.0 L142.1 39.8 L141.5 38.6 L140.9 37.4 L140.8 36.3 L141.3 35.5 L142.3 34.7 L143.4 34.0 L144.5 33.4 L145.4 32.9 L146.4 32.5 L147.4 32.2 L148.4 31.9 L149.5 31.4 L150.7 30.9 L151.9 30.5 L152.9 30.6 L153.7 31.2 L154.4 32.3 L155.0 33.5 L155.6 34.6 L156.1 35.4 L156.6 36.1 L157.1 36.8 L157.6 37.6 L158.3 38.5 L159.1 39.5 L159.8 40.4 L160.3 41.0 Z" fill="#141311" opacity="1.0"/></g><g transform="translate(480 0)"><path d="M117.9 117.6 L120.4 117.6 L120.9 115.9 L121.2 114.5 L124.5 112.8 L125.8 112.3 L126.8 109.7 L127.9 106.7 L131.2 104.4 L133.7 102.2 L134.5 100.9 L135.5 98.5 L137.6 96.1 L137.8 93.3 L138.7 91.4 L139.5 88.7 L141.3 86.2 L141.0 84.1 L141.8 81.2 L141.4 78.2 L142.3 76.2 L142.3 74.2 L141.4 72.5 L141.9 71.8 L142.5 70.0 L141.3 68.3 L143.2 67.3 L143.9 66.5 L144.1 66.0 L144.2 64.9 L144.9 64.1 L144.3 62.0 L144.7 61.8 L145.1 61.5 L146.5 60.0 L146.7 58.7 L146.7 58.0 L142.2 55.0 L142.3 55.5 L141.8 56.4 L140.5 57.9 L139.9 58.0 L139.2 58.1 L139.3 60.0 L137.7 60.6 L136.7 61.5 L136.7 62.5 L135.2 63.5 L133.8 65.3 L133.1 67.0 L133.0 69.6 L132.7 70.9 L131.7 72.7 L131.7 74.9 L131.1 77.1 L130.9 79.9 L131.4 82.8 L130.6 84.3 L130.1 86.7 L129.3 88.8 L128.7 90.1 L128.8 92.1 L128.2 94.5 L127.0 96.3 L125.9 97.0 L123.9 99.1 L121.9 102.1 L120.1 104.4 L119.2 106.9 L118.6 108.0 L116.2 110.4 L115.9 111.8 L114.8 113.3 L113.8 114.5 Z" fill="#141311" opacity="1.0"/><path d="M123.5 115.0 L124.2 114.5 L125.1 114.4 L127.4 111.9 L127.8 110.1 L130.8 109.5 L132.3 107.4 L134.6 104.3 L135.5 103.3 L138.3 100.1 L138.8 99.3 L141.1 96.2 L142.0 94.1 L143.3 92.6 L143.6 90.6 L143.8 88.3 L143.6 86.6 L143.8 83.7 L144.6 82.5 L143.2 79.8 L143.3 77.4 L144.0 75.7 L144.6 74.4 L143.9 73.2 L144.0 72.6 L141.7 72.4 L141.1 73.0 L141.6 74.2 L140.9 75.6 L139.8 77.2 L139.3 79.6 L140.0 82.1 L138.7 83.1 L138.7 85.9 L138.7 87.2 L138.2 89.1 L138.0 90.6 L136.4 91.4 L135.6 92.9 L133.5 95.7 L133.9 96.8 L130.7 99.5 L130.7 101.0 L128.2 103.9 L127.2 106.3 L124.9 107.5 L123.9 108.8 L122.5 112.0 L121.4 112.0 L121.5 113.3 Z" fill="#141311" opacity="0.85"/><path d="M117.6 119.6 L118.6 118.9 L122.5 119.9 L125.1 121.4 L129.3 121.4 L134.6 123.6 L138.5 124.6 L142.9 124.7 L146.2 127.6 L150.0 128.4 L153.3 129.0 L156.2 132.2 L157.0 132.4 L158.6 135.4 L158.2 136.5 L159.1 140.0 L159.7 142.1 L157.8 146.8 L157.0 150.1 L156.0 153.7 L156.3 156.8 L155.6 160.4 L156.2 164.9 L154.4 166.7 L154.7 170.1 L156.3 171.2 L157.3 174.2 L158.8 174.1 L159.7 176.1 L162.6 176.5 L163.3 177.2 L165.7 176.7 L166.4 177.9 L167.7 177.8 L168.6 177.2 L169.4 176.3 L170.7 177.8 L171.4 175.9 L169.9 174.2 L169.0 174.5 L168.0 174.7 L166.8 174.8 L166.3 173.3 L164.3 173.3 L164.1 172.4 L161.8 172.2 L161.5 170.8 L160.9 171.4 L160.1 169.5 L159.8 169.0 L159.1 166.7 L161.0 165.5 L160.3 161.3 L161.4 158.0 L162.0 155.0 L162.8 151.3 L163.9 147.8 L165.2 142.6 L164.4 140.0 L164.3 135.7 L164.5 133.2 L161.5 129.1 L160.4 127.1 L156.1 124.2 L152.3 123.4 L148.4 121.5 L144.9 118.2 L140.0 119.1 L136.4 116.6 L130.9 114.8 L126.7 114.5 L124.1 113.1 L120.4 112.3 L119.6 113.0 Z" fill="#141311" opacity="1.0"/><path d="M115.4 114.1 L114.3 115.9 L112.0 117.9 L111.2 121.8 L108.8 124.5 L106.4 129.7 L103.6 133.2 L102.1 135.7 L99.6 139.6 L96.7 144.2 L94.1 146.5 L92.6 149.5 L90.6 151.1 L88.3 153.8 L86.0 154.3 L82.6 155.2 L81.9 156.1 L79.3 157.5 L77.8 157.5 L75.3 158.0 L72.7 157.9 L71.4 159.1 L68.0 159.6 L66.2 159.6 L64.6 160.7 L63.0 161.8 L61.0 162.3 L59.4 163.5 L59.0 164.0 L57.2 165.4 L56.9 165.3 L56.6 167.1 L55.8 167.2 L54.1 169.1 L53.2 169.0 L53.4 169.8 L52.3 169.7 L53.3 171.2 L54.5 171.3 L54.4 170.5 L55.4 170.8 L57.3 169.1 L58.2 169.3 L58.5 167.4 L58.7 167.6 L60.6 166.3 L61.3 166.5 L62.7 165.5 L64.6 165.0 L65.9 163.9 L67.4 163.6 L68.9 163.9 L72.2 163.3 L73.3 161.6 L75.9 161.9 L78.7 161.8 L80.3 161.4 L83.3 160.3 L84.6 159.9 L88.4 158.7 L91.1 157.8 L93.8 154.7 L96.4 153.1 L98.1 149.9 L100.4 147.0 L104.2 142.8 L106.7 138.8 L108.2 136.3 L111.5 133.0 L114.0 127.8 L116.8 125.4 L117.8 121.6 L120.0 119.7 L121.4 118.2 Z" fill="#141311" opacity="0.9"/><path d="M136.1 69.8 L136.6 72.0 L139.0 74.5 L140.3 77.2 L141.9 80.2 L144.3 83.2 L145.7 86.2 L147.2 89.7 L149.5 92.6 L150.6 94.1 L153.0 96.3 L154.4 98.5 L157.0 99.0 L160.0 99.3 L161.6 99.5 L163.5 97.0 L164.6 95.5 L166.3 92.6 L167.1 90.6 L169.4 88.1 L169.3 84.9 L170.4 83.1 L170.6 80.3 L171.2 78.5 L172.4 78.0 L170.9 77.2 L169.5 77.5 L168.3 79.2 L167.7 81.9 L166.4 83.6 L166.5 86.7 L164.3 89.1 L163.1 90.7 L161.4 93.2 L160.6 94.4 L158.8 95.6 L158.8 94.9 L158.0 95.0 L156.9 95.0 L156.3 93.3 L154.0 91.5 L153.1 90.1 L151.2 87.2 L150.1 83.7 L148.3 80.9 L146.5 77.6 L144.8 74.7 L143.3 72.1 L140.5 69.7 L140.4 67.1 Z" fill="#141311" opacity="1.0"/><path d="M136.3 66.5 L135.3 68.4 L133.1 69.0 L129.1 69.2 L127.2 71.0 L123.2 74.1 L121.1 75.9 L117.7 76.5 L113.6 78.4 L110.2 81.5 L108.1 83.2 L106.0 85.2 L104.4 87.7 L101.9 88.7 L99.3 91.1 L97.9 92.8 L96.6 96.1 L97.4 97.9 L95.0 100.2 L94.8 102.9 L94.7 104.0 L94.3 106.3 L94.3 108.1 L92.7 107.7 L91.9 109.9 L93.3 110.5 L94.5 108.4 L96.0 108.7 L96.5 107.1 L97.2 104.9 L97.1 103.7 L97.5 101.2 L99.9 99.1 L99.4 97.6 L100.8 94.6 L101.9 93.0 L104.6 91.0 L106.7 90.1 L108.4 88.3 L110.6 86.7 L112.5 84.9 L115.7 81.9 L119.6 79.8 L123.2 79.7 L125.4 77.9 L129.3 74.7 L131.3 73.2 L135.0 72.5 L137.3 71.9 L138.7 70.6 Z" fill="#141311" opacity="0.8"/><path d="M160.8 41.0 L160.8 41.8 L160.7 43.0 L160.6 44.3 L160.3 45.5 L159.8 46.6 L159.3 47.7 L158.6 48.7 L157.7 49.4 L156.7 49.7 L155.4 49.7 L154.2 49.6 L153.0 49.6 L151.9 50.0 L150.8 50.5 L149.7 50.9 L148.7 51.1 L147.6 50.9 L146.5 50.4 L145.5 49.8 L144.6 49.1 L143.8 48.2 L143.1 47.3 L142.6 46.2 L142.3 45.2 L142.3 44.2 L142.6 43.2 L142.9 42.1 L143.0 41.0 L142.6 39.8 L142.0 38.6 L141.4 37.4 L141.3 36.3 L141.8 35.5 L142.8 34.7 L143.9 34.0 L145.0 33.4 L145.9 32.9 L146.9 32.5 L147.9 32.2 L148.9 31.9 L150.0 31.4 L151.2 30.9 L152.4 30.5 L153.4 30.6 L154.2 31.2 L154.9 32.3 L155.5 33.5 L156.1 34.6 L156.6 35.4 L157.1 36.1 L157.6 36.8 L158.1 37.6 L158.8 38.5 L159.6 39.5 L160.3 40.4 L160.8 41.0 Z" fill="#141311" opacity="1.0"/></g><g transform="translate(720 0)"><path d="M116.9 119.1 L119.4 119.1 L119.9 117.3 L120.2 116.0 L123.5 114.3 L124.7 113.8 L125.7 111.2 L126.7 108.1 L130.1 105.9 L132.5 103.7 L133.3 102.4 L134.3 100.0 L136.3 97.5 L136.5 94.8 L137.5 92.8 L138.2 90.1 L140.0 87.6 L139.7 85.6 L140.5 82.6 L140.0 79.7 L140.9 77.6 L140.8 75.6 L139.9 73.9 L140.5 73.2 L141.1 71.5 L139.8 69.7 L141.7 68.8 L142.4 67.9 L142.5 67.5 L142.6 66.4 L143.3 65.6 L142.7 63.4 L143.1 63.3 L143.4 63.0 L144.8 61.5 L145.0 60.1 L144.9 59.4 L140.5 56.5 L140.5 57.0 L140.1 57.9 L138.8 59.4 L138.2 59.5 L137.5 59.6 L137.7 61.6 L136.1 62.1 L135.1 63.1 L135.1 64.1 L133.7 65.1 L132.3 66.8 L131.6 68.5 L131.5 71.2 L131.3 72.5 L130.2 74.3 L130.3 76.5 L129.7 78.6 L129.5 81.4 L130.0 84.3 L129.2 85.9 L128.8 88.2 L128.0 90.3 L127.5 91.7 L127.6 93.7 L127.0 96.1 L125.8 97.8 L124.7 98.5 L122.7 100.7 L120.8 103.7 L119.0 105.9 L118.1 108.5 L117.6 109.5 L115.1 111.9 L114.8 113.3 L113.8 114.8 L112.8 116.0 Z" fill="#141311" opacity="1.0"/><path d="M122.5 116.5 L123.2 116.0 L124.1 115.9 L126.3 113.4 L126.7 111.6 L129.7 111.0 L131.2 108.9 L133.5 105.8 L134.3 104.8 L137.1 101.6 L137.6 100.8 L139.8 97.6 L140.7 95.6 L142.1 94.0 L142.3 92.0 L142.5 89.8 L142.2 88.1 L142.5 85.2 L143.2 84.0 L141.8 81.3 L141.8 78.9 L142.5 77.2 L143.2 75.8 L142.4 74.7 L142.5 74.1 L140.2 73.9 L139.6 74.5 L140.1 75.7 L139.4 77.1 L138.4 78.7 L137.9 81.1 L138.6 83.7 L137.3 84.7 L137.4 87.4 L137.4 88.8 L136.9 90.6 L136.7 92.1 L135.2 93.0 L134.3 94.4 L132.3 97.2 L132.7 98.3 L129.6 101.0 L129.6 102.6 L127.1 105.4 L126.1 107.8 L123.8 109.0 L122.9 110.3 L121.4 113.5 L120.3 113.5 L120.5 114.8 Z" fill="#141311" opacity="0.85"/><path d="M115.7 120.8 L116.4 120.5 L119.8 122.2 L121.8 124.5 L125.5 125.3 L130.0 128.4 L133.4 130.5 L137.0 131.5 L139.7 135.3 L143.2 137.1 L146.2 138.5 L148.9 142.3 L149.9 143.2 L151.8 146.9 L151.8 148.5 L153.1 152.3 L154.2 154.6 L153.0 159.6 L152.9 162.9 L152.8 166.5 L153.8 169.6 L153.8 173.0 L155.1 177.5 L154.1 179.2 L154.9 182.6 L156.8 183.5 L158.2 186.4 L160.0 186.1 L161.1 187.8 L164.2 188.0 L165.0 188.6 L167.5 187.9 L168.3 188.9 L169.6 188.6 L170.6 187.9 L171.4 186.9 L172.9 188.3 L173.3 186.4 L171.7 184.7 L170.7 185.1 L169.6 185.5 L168.3 185.8 L167.6 184.4 L165.4 184.6 L165.1 183.8 L162.6 183.7 L162.1 182.4 L161.2 183.0 L160.2 181.1 L159.7 180.5 L158.6 178.2 L160.0 177.1 L158.6 172.9 L159.0 169.6 L158.8 166.6 L158.9 162.9 L159.2 159.4 L159.8 154.2 L158.4 151.5 L157.7 147.0 L157.6 144.5 L154.6 140.3 L153.8 138.0 L149.9 134.4 L146.6 132.8 L143.4 130.0 L140.6 125.7 L136.3 125.6 L133.5 122.1 L128.7 119.4 L125.2 118.3 L123.2 116.1 L119.9 114.6 L119.4 114.9 Z" fill="#141311" opacity="1.0"/><path d="M114.3 115.7 L113.4 117.3 L111.4 119.1 L110.9 122.8 L108.9 125.2 L106.9 130.1 L104.5 133.3 L103.5 135.3 L101.4 138.6 L98.9 142.5 L96.7 143.9 L95.8 145.8 L94.4 146.2 L93.0 147.4 L91.3 146.4 L88.3 145.5 L87.5 144.3 L84.8 143.4 L83.5 141.2 L80.7 139.2 L78.1 136.8 L77.1 135.8 L73.7 134.3 L71.7 132.5 L69.6 132.1 L67.8 132.3 L65.5 132.3 L63.7 133.2 L63.1 133.7 L61.2 135.3 L60.8 135.4 L60.5 137.5 L59.7 138.0 L58.0 140.2 L57.0 140.3 L57.3 141.3 L56.2 141.3 L57.3 142.6 L58.6 142.7 L58.5 141.6 L59.6 141.6 L61.5 139.6 L62.5 139.4 L62.7 137.3 L62.9 137.3 L64.6 136.1 L65.2 136.4 L66.4 135.8 L67.9 135.8 L68.9 135.5 L69.8 136.2 L71.1 137.9 L74.3 139.1 L75.6 139.5 L78.0 142.1 L80.6 144.4 L82.2 146.6 L84.9 147.9 L85.9 150.0 L89.8 151.2 L92.9 152.2 L95.9 150.7 L98.8 150.1 L100.4 147.7 L102.5 145.5 L105.9 141.9 L108.1 138.4 L109.2 136.2 L112.1 133.2 L114.2 128.3 L116.7 126.1 L117.4 122.5 L119.3 120.9 L120.4 119.7 Z" fill="#141311" opacity="0.9"/><path d="M134.5 71.1 L134.9 73.4 L137.1 76.0 L138.1 78.9 L139.4 82.0 L141.5 85.2 L142.6 88.5 L143.7 92.1 L145.7 95.2 L146.5 97.0 L148.7 99.4 L149.9 101.7 L152.3 102.4 L155.2 102.9 L156.9 103.3 L158.8 100.9 L160.0 99.5 L161.8 96.7 L162.7 94.8 L165.1 92.4 L165.0 89.2 L166.2 87.5 L166.4 84.7 L167.2 83.0 L168.4 82.6 L166.9 81.6 L165.5 82.0 L164.2 83.5 L163.6 86.2 L162.2 87.8 L162.1 90.8 L159.9 93.1 L158.6 94.7 L156.9 97.1 L156.0 98.2 L154.3 99.3 L154.4 98.5 L153.7 98.6 L152.7 98.6 L152.3 96.7 L150.2 94.7 L149.6 93.2 L148.0 90.0 L147.1 86.3 L145.7 83.4 L144.2 79.9 L142.8 76.9 L141.6 74.1 L139.0 71.5 L139.0 68.9 Z" fill="#141311" opacity="1.0"/><path d="M134.7 68.0 L133.8 70.0 L131.8 70.6 L128.0 70.9 L126.4 72.8 L122.7 76.0 L120.8 77.9 L117.8 78.6 L113.9 80.6 L110.8 83.8 L109.0 85.6 L107.1 87.7 L105.8 90.3 L103.5 91.4 L101.1 93.9 L100.0 95.7 L98.9 99.1 L99.8 101.0 L97.6 103.3 L97.6 106.1 L97.7 107.3 L97.4 109.7 L97.5 111.5 L96.1 111.2 L95.4 113.4 L96.8 113.9 L97.9 111.8 L99.3 112.0 L99.7 110.3 L100.2 108.0 L100.0 106.8 L100.2 104.2 L102.5 102.0 L101.8 100.4 L103.0 97.2 L103.9 95.6 L106.4 93.5 L108.3 92.5 L109.8 90.6 L111.7 88.9 L113.3 87.0 L116.3 84.0 L119.9 81.8 L123.2 81.5 L125.1 79.7 L128.7 76.4 L130.4 74.8 L133.9 74.0 L136.0 73.4 L137.4 72.0 Z" fill="#141311" opacity="0.8"/><path d="M158.8 42.5 L158.8 43.3 L158.7 44.5 L158.6 45.8 L158.3 47.0 L157.8 48.1 L157.3 49.2 L156.6 50.2 L155.7 50.9 L154.7 51.2 L153.4 51.2 L152.2 51.1 L151.0 51.1 L149.9 51.5 L148.8 52.0 L147.7 52.4 L146.7 52.6 L145.6 52.4 L144.5 51.9 L143.5 51.3 L142.6 50.6 L141.8 49.7 L141.1 48.8 L140.6 47.7 L140.3 46.7 L140.3 45.7 L140.6 44.7 L140.9 43.6 L141.0 42.5 L140.6 41.3 L140.0 40.1 L139.4 38.9 L139.3 37.8 L139.8 37.0 L140.8 36.2 L141.9 35.5 L143.0 34.9 L143.9 34.4 L144.9 34.0 L145.9 33.7 L146.9 33.4 L148.0 32.9 L149.2 32.4 L150.4 32.0 L151.4 32.1 L152.2 32.7 L152.9 33.8 L153.5 35.0 L154.1 36.1 L154.6 36.9 L155.1 37.6 L155.6 38.3 L156.1 39.1 L156.8 40.0 L157.6 41.0 L158.3 41.9 L158.8 42.5 Z" fill="#141311" opacity="1.0"/></g><g transform="translate(960 0)"><path d="M117.0 120.6 L119.4 120.6 L119.9 118.8 L120.1 117.5 L123.4 115.7 L124.5 115.2 L125.5 112.6 L126.4 109.6 L129.7 107.3 L132.0 105.1 L132.7 103.8 L133.7 101.4 L135.6 98.9 L135.7 96.2 L136.6 94.2 L137.3 91.5 L139.0 89.0 L138.6 86.9 L139.3 84.0 L138.9 81.0 L139.7 79.0 L139.5 76.9 L138.6 75.3 L139.1 74.5 L139.6 72.8 L138.3 71.1 L140.2 70.1 L140.8 69.3 L140.8 68.8 L140.9 67.7 L141.5 66.9 L140.8 64.8 L141.1 64.6 L141.4 64.4 L142.7 62.8 L142.8 61.5 L142.8 60.8 L138.1 58.1 L138.2 58.6 L137.8 59.5 L136.5 61.0 L136.0 61.2 L135.4 61.3 L135.7 63.2 L134.1 63.8 L133.2 64.8 L133.3 65.7 L132.0 66.8 L130.7 68.5 L130.0 70.2 L130.0 72.8 L129.9 74.1 L128.9 75.9 L129.0 78.1 L128.5 80.3 L128.3 83.1 L129.0 86.0 L128.2 87.5 L127.8 89.9 L127.1 91.9 L126.6 93.3 L126.8 95.3 L126.2 97.7 L125.1 99.4 L124.1 100.1 L122.2 102.3 L120.3 105.2 L118.6 107.5 L117.7 110.0 L117.3 111.0 L114.9 113.4 L114.7 114.8 L113.7 116.3 L112.8 117.5 Z" fill="#141311" opacity="1.0"/><path d="M122.5 118.0 L123.2 117.5 L124.1 117.3 L126.2 114.9 L126.6 113.1 L129.5 112.5 L130.9 110.3 L133.2 107.3 L133.9 106.2 L136.6 103.0 L137.0 102.2 L139.2 99.1 L140.0 97.0 L141.3 95.4 L141.5 93.4 L141.6 91.2 L141.2 89.5 L141.4 86.6 L142.1 85.4 L140.5 82.7 L140.5 80.3 L141.2 78.6 L141.8 77.3 L140.9 76.1 L141.0 75.6 L138.7 75.4 L138.2 76.1 L138.7 77.3 L138.0 78.7 L137.0 80.3 L136.6 82.7 L137.4 85.2 L136.2 86.3 L136.3 89.0 L136.5 90.3 L136.0 92.2 L135.9 93.7 L134.4 94.6 L133.6 96.0 L131.6 98.8 L132.2 99.9 L129.1 102.6 L129.1 104.1 L126.7 106.9 L125.8 109.4 L123.6 110.5 L122.7 111.9 L121.3 115.0 L120.3 115.1 L120.5 116.4 Z" fill="#141311" opacity="0.85"/><path d="M114.9 117.2 L112.3 117.5 L111.6 120.0 L108.8 123.3 L107.1 125.6 L105.8 129.6 L103.5 134.0 L100.9 135.2 L97.8 140.0 L95.7 142.7 L93.5 143.8 L92.0 146.0 L89.5 146.1 L89.2 146.9 L86.6 145.5 L84.9 145.7 L83.7 143.1 L80.6 142.5 L78.0 140.3 L75.7 138.2 L73.9 135.9 L71.4 134.2 L70.4 133.9 L66.7 131.4 L64.9 131.0 L63.1 130.4 L61.3 131.6 L59.8 131.0 L57.8 132.7 L58.0 133.6 L56.2 135.2 L56.4 135.9 L55.2 138.2 L54.6 138.9 L54.1 139.3 L53.9 139.3 L54.3 141.2 L55.8 142.5 L55.6 140.7 L56.5 140.9 L57.3 140.5 L57.9 139.9 L59.3 137.9 L59.4 137.6 L61.1 136.5 L60.5 136.2 L61.8 134.8 L62.5 136.0 L63.2 134.6 L63.6 136.1 L64.5 135.5 L67.6 137.8 L68.3 137.9 L70.4 139.9 L71.7 142.7 L74.1 144.9 L76.8 147.4 L80.6 147.7 L82.4 150.4 L84.8 151.4 L88.8 153.2 L91.0 151.4 L95.3 151.7 L97.1 148.1 L99.6 146.6 L102.6 144.2 L106.2 139.5 L108.1 137.5 L111.7 133.8 L112.6 129.5 L114.6 127.3 L117.3 124.0 L117.8 121.6 L120.3 121.5 Z" fill="#141311" opacity="1.0"/><path d="M114.2 120.9 L115.4 122.4 L116.1 124.0 L118.7 127.5 L120.2 129.4 L122.0 134.1 L123.5 136.9 L126.5 139.0 L128.4 142.7 L129.7 146.8 L130.9 149.7 L132.9 153.1 L133.8 155.4 L134.0 159.4 L133.7 161.9 L132.3 165.1 L133.5 168.3 L132.7 172.4 L132.7 175.5 L131.8 178.7 L130.9 181.4 L131.1 185.5 L129.4 188.5 L129.7 190.5 L130.6 192.8 L131.6 195.1 L132.4 196.4 L133.9 197.8 L136.4 197.4 L137.5 198.2 L140.1 197.4 L142.5 198.5 L144.2 197.6 L144.7 198.5 L145.7 197.6 L147.5 197.8 L147.7 197.3 L147.9 195.6 L147.6 195.9 L145.6 195.6 L144.5 196.4 L144.0 195.2 L142.5 195.8 L140.2 194.8 L137.9 195.6 L137.2 194.7 L135.5 194.6 L134.8 193.7 L134.6 193.2 L133.9 191.8 L133.8 190.1 L133.8 188.7 L135.3 186.0 L134.6 182.0 L135.7 179.4 L137.0 176.2 L136.7 173.0 L137.9 168.9 L137.4 165.5 L138.7 161.9 L138.8 159.0 L138.5 154.4 L137.9 151.6 L135.8 147.7 L133.9 144.8 L133.3 140.2 L131.4 136.4 L128.4 134.1 L127.3 131.0 L125.5 126.2 L124.4 124.0 L122.0 120.5 L121.4 119.0 L120.6 117.4 Z" fill="#141311" opacity="0.9"/><path d="M132.9 72.3 L133.1 74.9 L135.1 77.6 L135.9 80.7 L136.9 84.0 L138.7 87.5 L139.4 91.0 L140.2 95.0 L141.9 98.4 L142.4 100.4 L144.3 103.1 L145.3 105.7 L147.5 106.7 L150.3 107.7 L152.0 108.5 L154.2 106.4 L155.5 105.3 L157.5 102.8 L158.6 101.1 L161.2 99.0 L161.4 96.1 L162.7 94.6 L163.2 92.0 L164.0 90.4 L165.3 90.2 L163.9 89.0 L162.4 89.2 L161.1 90.6 L160.3 93.0 L158.7 94.3 L158.5 97.1 L156.0 99.2 L154.6 100.4 L152.7 102.5 L151.9 103.3 L150.1 104.2 L150.3 103.2 L149.6 103.2 L148.6 103.0 L148.2 100.9 L146.3 98.6 L146.0 96.8 L144.6 93.4 L144.2 89.4 L143.0 86.1 L141.9 82.5 L140.8 79.2 L139.8 76.1 L137.4 73.4 L137.6 70.6 Z" fill="#141311" opacity="1.0"/><path d="M132.9 69.7 L132.3 71.8 L130.5 72.7 L126.9 73.2 L125.6 75.4 L122.1 78.8 L120.6 81.0 L117.9 82.1 L114.3 84.4 L111.6 87.8 L110.0 89.9 L108.3 92.2 L107.3 94.9 L105.1 96.1 L102.8 98.6 L101.7 100.4 L100.6 103.9 L101.5 105.7 L99.3 108.0 L99.3 110.8 L99.3 111.9 L99.0 114.3 L99.1 116.1 L97.6 115.7 L96.9 117.9 L98.3 118.5 L99.4 116.3 L100.8 116.6 L101.2 114.9 L101.9 112.7 L101.6 111.5 L101.9 108.9 L104.2 106.7 L103.5 105.1 L104.8 101.9 L105.6 100.2 L108.1 98.0 L109.9 96.9 L111.3 94.8 L113.0 92.9 L114.4 90.8 L117.1 87.4 L120.4 84.9 L123.4 84.4 L125.0 82.2 L128.3 78.7 L129.8 76.7 L133.0 75.7 L134.9 74.9 L136.1 73.4 Z" fill="#141311" opacity="0.8"/><path d="M155.8 44.0 L155.8 44.8 L155.7 46.0 L155.6 47.3 L155.3 48.5 L154.8 49.6 L154.3 50.7 L153.6 51.7 L152.7 52.4 L151.7 52.7 L150.4 52.7 L149.2 52.6 L148.0 52.6 L146.9 53.0 L145.8 53.5 L144.7 53.9 L143.7 54.1 L142.6 53.9 L141.5 53.4 L140.5 52.8 L139.6 52.1 L138.8 51.2 L138.1 50.3 L137.6 49.2 L137.3 48.2 L137.3 47.2 L137.6 46.2 L137.9 45.1 L138.0 44.0 L137.6 42.8 L137.0 41.6 L136.4 40.4 L136.3 39.3 L136.8 38.5 L137.8 37.7 L138.9 37.0 L140.0 36.4 L140.9 35.9 L141.9 35.5 L142.9 35.2 L143.9 34.9 L145.0 34.4 L146.2 33.9 L147.4 33.5 L148.4 33.6 L149.2 34.2 L149.9 35.3 L150.5 36.5 L151.1 37.6 L151.6 38.4 L152.1 39.1 L152.6 39.8 L153.1 40.6 L153.8 41.5 L154.6 42.5 L155.3 43.4 L155.8 44.0 Z" fill="#141311" opacity="1.0"/></g><g transform="translate(1200 0)"><path d="M118.4 117.6 L120.9 117.6 L121.4 115.8 L121.7 114.5 L125.0 112.8 L126.2 112.3 L127.2 109.7 L128.2 106.6 L131.6 104.4 L134.0 102.2 L134.8 100.9 L135.8 98.5 L137.8 96.0 L138.0 93.3 L139.0 91.3 L139.7 88.6 L141.5 86.1 L141.2 84.1 L142.0 81.1 L141.5 78.2 L142.4 76.1 L142.3 74.1 L141.4 72.4 L142.0 71.7 L142.6 70.0 L141.3 68.2 L143.2 67.3 L143.9 66.4 L144.0 66.0 L144.1 64.9 L144.8 64.1 L144.2 61.9 L144.6 61.8 L144.9 61.5 L146.3 60.0 L146.5 58.6 L146.4 57.9 L142.0 55.0 L142.0 55.5 L141.6 56.4 L140.3 57.9 L139.7 58.0 L139.0 58.1 L139.2 60.1 L137.6 60.6 L136.6 61.6 L136.6 62.6 L135.2 63.6 L133.8 65.3 L133.1 67.0 L133.0 69.7 L132.8 71.0 L131.7 72.8 L131.8 75.0 L131.2 77.1 L131.0 79.9 L131.5 82.8 L130.7 84.4 L130.3 86.7 L129.5 88.8 L129.0 90.2 L129.1 92.2 L128.5 94.6 L127.3 96.3 L126.2 97.0 L124.2 99.2 L122.3 102.2 L120.5 104.4 L119.6 107.0 L119.1 108.0 L116.6 110.4 L116.3 111.8 L115.3 113.3 L114.3 114.5 Z" fill="#141311" opacity="1.0"/><path d="M124.0 115.0 L124.7 114.5 L125.6 114.4 L127.8 111.9 L128.2 110.1 L131.2 109.5 L132.7 107.4 L135.0 104.3 L135.8 103.3 L138.6 100.1 L139.1 99.3 L141.3 96.1 L142.2 94.1 L143.6 92.5 L143.8 90.5 L144.0 88.3 L143.7 86.6 L144.0 83.7 L144.7 82.5 L143.3 79.8 L143.3 77.4 L144.0 75.7 L144.7 74.3 L143.9 73.2 L144.0 72.6 L141.7 72.4 L141.1 73.0 L141.6 74.2 L140.9 75.6 L139.9 77.2 L139.4 79.6 L140.1 82.2 L138.8 83.2 L138.9 85.9 L138.9 87.3 L138.4 89.1 L138.2 90.6 L136.7 91.5 L135.8 92.9 L133.8 95.7 L134.2 96.8 L131.1 99.5 L131.1 101.1 L128.6 103.9 L127.6 106.3 L125.3 107.5 L124.4 108.8 L122.9 112.0 L121.8 112.0 L122.0 113.3 Z" fill="#141311" opacity="0.85"/><path d="M116.3 114.3 L113.6 115.0 L112.5 117.8 L109.4 121.5 L107.3 124.4 L105.6 129.0 L102.8 134.1 L99.7 136.1 L96.1 141.9 L93.5 145.8 L90.8 148.3 L88.4 152.3 L85.3 154.3 L83.6 157.5 L80.3 158.6 L78.4 161.5 L76.7 162.1 L73.0 164.9 L70.4 166.3 L68.0 167.7 L66.5 168.9 L64.2 170.5 L63.3 173.1 L59.9 173.2 L58.2 174.9 L57.3 175.6 L55.9 177.6 L54.9 177.2 L53.1 178.9 L53.6 179.4 L51.9 180.6 L52.2 180.9 L51.0 182.7 L50.4 182.9 L49.9 182.9 L49.6 182.8 L49.9 184.6 L51.2 186.1 L51.0 184.5 L51.7 185.1 L52.5 185.3 L53.0 185.1 L54.4 183.6 L54.5 183.7 L56.3 182.8 L55.9 182.3 L57.5 180.6 L58.7 181.2 L59.9 178.9 L61.3 179.1 L62.5 177.1 L65.9 177.2 L66.8 174.6 L69.3 173.4 L71.2 172.8 L73.7 171.3 L76.5 170.0 L80.0 166.6 L81.7 165.7 L84.2 163.2 L87.9 162.0 L89.3 158.2 L93.4 156.7 L95.1 151.9 L97.8 149.2 L101.2 145.8 L105.2 140.1 L107.4 137.4 L111.5 133.2 L112.8 128.3 L115.2 125.6 L118.2 121.8 L119.1 119.0 L121.9 118.4 Z" fill="#141311" opacity="1.0"/><path d="M117.6 119.6 L119.8 119.9 L121.9 120.1 L126.0 121.7 L129.1 121.6 L132.7 124.2 L136.0 124.7 L140.8 124.6 L144.4 126.2 L147.0 128.2 L149.5 129.4 L152.3 131.3 L153.6 132.0 L153.8 134.9 L153.6 136.5 L152.0 139.3 L152.8 142.3 L151.4 146.4 L150.7 149.6 L149.0 153.0 L147.3 156.0 L146.7 160.3 L144.2 163.6 L143.8 165.8 L144.0 168.4 L144.4 170.8 L144.6 172.3 L145.5 174.0 L147.7 174.1 L148.4 175.3 L150.6 174.9 L152.7 176.3 L154.0 175.7 L154.2 176.9 L154.9 176.2 L156.5 176.6 L156.4 176.2 L157.1 174.7 L157.1 174.8 L155.3 174.2 L154.5 174.8 L154.4 173.3 L153.3 173.7 L151.4 172.4 L149.5 172.9 L149.3 171.8 L148.1 171.6 L147.8 170.5 L147.8 169.9 L147.5 168.3 L147.8 166.5 L148.4 164.9 L150.7 161.8 L150.8 157.4 L152.7 154.5 L154.8 151.1 L155.2 147.7 L157.1 143.5 L157.0 140.2 L158.6 136.8 L158.6 134.0 L157.8 129.8 L156.0 127.6 L152.5 125.1 L149.2 124.0 L146.6 121.1 L142.7 119.4 L137.7 119.4 L134.4 118.3 L130.8 115.6 L127.7 115.3 L123.7 113.4 L121.9 113.3 L120.1 112.7 Z" fill="#141311" opacity="0.9"/><path d="M136.1 69.8 L136.6 72.1 L139.0 74.5 L140.3 77.3 L141.9 80.3 L144.3 83.3 L145.7 86.4 L147.1 89.9 L149.4 92.9 L150.5 94.5 L153.0 96.7 L154.4 98.9 L156.9 99.4 L159.9 99.9 L161.5 100.2 L163.5 97.8 L164.7 96.4 L166.5 93.6 L167.4 91.7 L169.7 89.3 L169.7 86.2 L170.8 84.5 L171.0 81.7 L171.7 79.9 L172.9 79.6 L171.4 78.6 L170.0 79.0 L168.7 80.5 L168.2 83.2 L166.8 84.7 L166.8 87.8 L164.5 90.1 L163.3 91.6 L161.6 94.0 L160.8 95.1 L158.9 96.2 L158.9 95.4 L158.1 95.5 L156.9 95.5 L156.3 93.7 L154.0 91.9 L153.1 90.4 L151.2 87.4 L150.0 83.9 L148.3 81.1 L146.5 77.8 L144.8 74.8 L143.3 72.2 L140.5 69.8 L140.4 67.1 Z" fill="#141311" opacity="1.0"/><path d="M136.2 66.5 L135.2 68.4 L133.0 69.1 L129.0 69.4 L127.2 71.3 L123.2 74.5 L121.1 76.4 L117.7 77.2 L113.6 79.1 L110.3 82.3 L108.2 84.1 L106.0 86.1 L104.4 88.7 L101.9 89.7 L99.2 92.1 L97.8 93.7 L96.4 97.0 L97.0 98.7 L94.5 100.9 L94.2 103.6 L94.0 104.6 L93.5 106.9 L93.4 108.6 L91.8 108.2 L90.9 110.3 L92.3 111.0 L93.5 109.0 L95.1 109.3 L95.7 107.8 L96.5 105.7 L96.4 104.6 L97.0 102.1 L99.5 100.1 L99.1 98.6 L100.6 95.6 L101.8 94.1 L104.5 92.1 L106.7 91.1 L108.5 89.2 L110.7 87.5 L112.6 85.7 L115.9 82.7 L119.7 80.4 L123.4 80.2 L125.5 78.3 L129.4 75.0 L131.3 73.3 L135.1 72.6 L137.3 71.9 L138.8 70.6 Z" fill="#141311" opacity="0.8"/><path d="M160.3 41.0 L160.3 41.8 L160.2 43.0 L160.1 44.3 L159.8 45.5 L159.3 46.6 L158.8 47.7 L158.1 48.7 L157.2 49.4 L156.2 49.7 L154.9 49.7 L153.7 49.6 L152.5 49.6 L151.4 50.0 L150.3 50.5 L149.2 50.9 L148.2 51.1 L147.1 50.9 L146.0 50.4 L145.0 49.8 L144.1 49.1 L143.3 48.2 L142.6 47.3 L142.1 46.2 L141.8 45.2 L141.8 44.2 L142.1 43.2 L142.4 42.1 L142.5 41.0 L142.1 39.8 L141.5 38.6 L140.9 37.4 L140.8 36.3 L141.3 35.5 L142.3 34.7 L143.4 34.0 L144.5 33.4 L145.4 32.9 L146.4 32.5 L147.4 32.2 L148.4 31.9 L149.5 31.4 L150.7 30.9 L151.9 30.5 L152.9 30.6 L153.7 31.2 L154.4 32.3 L155.0 33.5 L155.6 34.6 L156.1 35.4 L156.6 36.1 L157.1 36.8 L157.6 37.6 L158.3 38.5 L159.1 39.5 L159.8 40.4 L160.3 41.0 Z" fill="#141311" opacity="1.0"/></g><g transform="translate(1440 0)"><path d="M117.9 117.6 L120.4 117.6 L120.9 115.9 L121.2 114.5 L124.5 112.8 L125.8 112.3 L126.8 109.7 L127.9 106.7 L131.2 104.4 L133.7 102.2 L134.5 100.9 L135.5 98.5 L137.6 96.1 L137.8 93.3 L138.7 91.4 L139.5 88.7 L141.3 86.2 L141.0 84.1 L141.8 81.2 L141.4 78.2 L142.3 76.2 L142.3 74.2 L141.4 72.5 L141.9 71.8 L142.5 70.0 L141.3 68.3 L143.2 67.3 L143.9 66.5 L144.1 66.0 L144.2 64.9 L144.9 64.1 L144.3 62.0 L144.7 61.8 L145.1 61.5 L146.5 60.0 L146.7 58.7 L146.7 58.0 L142.2 55.0 L142.3 55.5 L141.8 56.4 L140.5 57.9 L139.9 58.0 L139.2 58.1 L139.3 60.0 L137.7 60.6 L136.7 61.5 L136.7 62.5 L135.2 63.5 L133.8 65.3 L133.1 67.0 L133.0 69.6 L132.7 70.9 L131.7 72.7 L131.7 74.9 L131.1 77.1 L130.9 79.9 L131.4 82.8 L130.6 84.3 L130.1 86.7 L129.3 88.8 L128.7 90.1 L128.8 92.1 L128.2 94.5 L127.0 96.3 L125.9 97.0 L123.9 99.1 L121.9 102.1 L120.1 104.4 L119.2 106.9 L118.6 108.0 L116.2 110.4 L115.9 111.8 L114.8 113.3 L113.8 114.5 Z" fill="#141311" opacity="1.0"/><path d="M123.5 115.0 L124.2 114.5 L125.1 114.4 L127.4 111.9 L127.8 110.1 L130.8 109.5 L132.3 107.4 L134.6 104.3 L135.5 103.3 L138.3 100.1 L138.8 99.3 L141.1 96.2 L142.0 94.1 L143.3 92.6 L143.6 90.6 L143.8 88.3 L143.6 86.6 L143.8 83.7 L144.6 82.5 L143.2 79.8 L143.3 77.4 L144.0 75.7 L144.6 74.4 L143.9 73.2 L144.0 72.6 L141.7 72.4 L141.1 73.0 L141.6 74.2 L140.9 75.6 L139.8 77.2 L139.3 79.6 L140.0 82.1 L138.7 83.1 L138.7 85.9 L138.7 87.2 L138.2 89.1 L138.0 90.6 L136.4 91.4 L135.6 92.9 L133.5 95.7 L133.9 96.8 L130.7 99.5 L130.7 101.0 L128.2 103.9 L127.2 106.3 L124.9 107.5 L123.9 108.8 L122.5 112.0 L121.4 112.0 L121.5 113.3 Z" fill="#141311" opacity="0.85"/><path d="M115.7 114.4 L113.1 115.1 L112.3 117.9 L109.5 121.7 L107.7 124.6 L106.3 129.2 L103.9 134.2 L101.2 136.2 L97.9 141.8 L95.7 145.5 L93.3 147.7 L91.3 151.3 L88.4 152.7 L87.2 155.0 L84.1 155.1 L82.4 157.1 L81.0 156.5 L77.6 158.1 L75.1 158.2 L72.7 158.4 L71.1 158.5 L68.7 159.0 L67.7 160.7 L64.0 160.0 L62.3 161.1 L61.2 161.5 L59.7 163.2 L58.5 162.8 L56.7 164.5 L57.1 165.1 L55.3 166.5 L55.6 166.9 L54.3 168.9 L53.8 169.3 L53.3 169.4 L53.0 169.3 L53.4 171.1 L54.7 172.6 L54.5 170.9 L55.3 171.3 L56.1 171.3 L56.6 171.0 L58.1 169.3 L58.1 169.3 L59.9 168.3 L59.4 167.9 L61.0 166.3 L62.0 167.1 L63.1 165.2 L64.3 166.0 L65.3 164.5 L68.6 165.4 L69.3 163.8 L71.7 163.7 L73.4 164.4 L76.0 164.1 L78.8 164.1 L82.5 161.9 L84.3 162.1 L86.9 160.6 L90.6 160.2 L92.1 156.8 L96.1 155.8 L97.6 151.2 L100.1 148.8 L103.2 145.5 L106.9 139.9 L108.8 137.3 L112.5 133.0 L113.5 128.1 L115.5 125.4 L118.3 121.6 L118.9 118.8 L121.5 118.2 Z" fill="#141311" opacity="1.0"/><path d="M117.4 119.7 L119.9 119.9 L122.3 119.9 L126.8 121.3 L130.4 121.0 L134.5 123.3 L138.2 123.6 L143.6 123.3 L147.7 124.8 L150.9 126.5 L154.1 127.7 L157.5 129.6 L159.3 130.4 L160.1 133.4 L160.5 135.2 L159.5 138.1 L161.0 141.2 L160.4 145.5 L160.5 148.9 L159.6 152.5 L158.6 155.7 L158.6 160.3 L156.7 163.7 L156.9 166.0 L157.5 168.6 L158.2 171.0 L158.6 172.5 L159.5 174.2 L161.6 174.2 L162.3 175.4 L164.3 175.0 L166.3 176.4 L167.5 175.7 L167.5 176.9 L168.1 176.2 L169.5 176.6 L169.4 176.2 L170.1 174.7 L170.2 174.8 L168.5 174.2 L167.8 174.8 L167.9 173.4 L166.9 173.8 L165.2 172.5 L163.4 173.0 L163.3 172.0 L162.1 171.7 L161.6 170.6 L161.5 169.8 L160.9 168.0 L161.0 166.0 L161.1 164.2 L162.8 161.0 L162.3 156.4 L163.5 153.2 L164.8 149.6 L164.5 145.9 L165.5 141.5 L164.6 137.9 L165.4 134.3 L164.6 131.5 L163.1 127.4 L160.7 125.4 L156.6 123.0 L152.7 122.2 L149.4 119.5 L145.0 118.0 L139.4 118.2 L135.7 117.3 L131.5 114.9 L128.0 114.8 L123.6 113.1 L121.4 113.1 L119.3 112.7 Z" fill="#141311" opacity="0.9"/><path d="M136.1 69.8 L136.6 72.0 L139.0 74.5 L140.3 77.2 L141.9 80.2 L144.3 83.2 L145.7 86.2 L147.2 89.7 L149.5 92.6 L150.6 94.1 L153.0 96.3 L154.4 98.5 L157.0 99.0 L160.0 99.3 L161.6 99.5 L163.5 97.0 L164.6 95.5 L166.3 92.6 L167.1 90.6 L169.4 88.1 L169.3 84.9 L170.4 83.1 L170.6 80.3 L171.2 78.5 L172.4 78.0 L170.9 77.2 L169.5 77.5 L168.3 79.2 L167.7 81.9 L166.4 83.6 L166.5 86.7 L164.3 89.1 L163.1 90.7 L161.4 93.2 L160.6 94.4 L158.8 95.6 L158.8 94.9 L158.0 95.0 L156.9 95.0 L156.3 93.3 L154.0 91.5 L153.1 90.1 L151.2 87.2 L150.1 83.7 L148.3 80.9 L146.5 77.6 L144.8 74.7 L143.3 72.1 L140.5 69.7 L140.4 67.1 Z" fill="#141311" opacity="1.0"/><path d="M136.3 66.5 L135.3 68.4 L133.1 69.0 L129.1 69.2 L127.2 71.0 L123.2 74.1 L121.1 75.9 L117.7 76.5 L113.6 78.4 L110.2 81.5 L108.1 83.2 L106.0 85.2 L104.4 87.7 L101.9 88.7 L99.3 91.1 L97.9 92.8 L96.6 96.1 L97.4 97.9 L95.0 100.2 L94.8 102.9 L94.7 104.0 L94.3 106.3 L94.3 108.1 L92.7 107.7 L91.9 109.9 L93.3 110.5 L94.5 108.4 L96.0 108.7 L96.5 107.1 L97.2 104.9 L97.1 103.7 L97.5 101.2 L99.9 99.1 L99.4 97.6 L100.8 94.6 L101.9 93.0 L104.6 91.0 L106.7 90.1 L108.4 88.3 L110.6 86.7 L112.5 84.9 L115.7 81.9 L119.6 79.8 L123.2 79.7 L125.4 77.9 L129.3 74.7 L131.3 73.2 L135.0 72.5 L137.3 71.9 L138.7 70.6 Z" fill="#141311" opacity="0.8"/><path d="M160.8 41.0 L160.8 41.8 L160.7 43.0 L160.6 44.3 L160.3 45.5 L159.8 46.6 L159.3 47.7 L158.6 48.7 L157.7 49.4 L156.7 49.7 L155.4 49.7 L154.2 49.6 L153.0 49.6 L151.9 50.0 L150.8 50.5 L149.7 50.9 L148.7 51.1 L147.6 50.9 L146.5 50.4 L145.5 49.8 L144.6 49.1 L143.8 48.2 L143.1 47.3 L142.6 46.2 L142.3 45.2 L142.3 44.2 L142.6 43.2 L142.9 42.1 L143.0 41.0 L142.6 39.8 L142.0 38.6 L141.4 37.4 L141.3 36.3 L141.8 35.5 L142.8 34.7 L143.9 34.0 L145.0 33.4 L145.9 32.9 L146.9 32.5 L147.9 32.2 L148.9 31.9 L150.0 31.4 L151.2 30.9 L152.4 30.5 L153.4 30.6 L154.2 31.2 L154.9 32.3 L155.5 33.5 L156.1 34.6 L156.6 35.4 L157.1 36.1 L157.6 36.8 L158.1 37.6 L158.8 38.5 L159.6 39.5 L160.3 40.4 L160.8 41.0 Z" fill="#141311" opacity="1.0"/></g><g transform="translate(1680 0)"><path d="M116.9 119.1 L119.4 119.1 L119.9 117.3 L120.2 116.0 L123.5 114.3 L124.7 113.8 L125.7 111.2 L126.7 108.1 L130.1 105.9 L132.5 103.7 L133.3 102.4 L134.3 100.0 L136.3 97.5 L136.5 94.8 L137.5 92.8 L138.2 90.1 L140.0 87.6 L139.7 85.6 L140.5 82.6 L140.0 79.7 L140.9 77.6 L140.8 75.6 L139.9 73.9 L140.5 73.2 L141.1 71.5 L139.8 69.7 L141.7 68.8 L142.4 67.9 L142.5 67.5 L142.6 66.4 L143.3 65.6 L142.7 63.4 L143.1 63.3 L143.4 63.0 L144.8 61.5 L145.0 60.1 L144.9 59.4 L140.5 56.5 L140.5 57.0 L140.1 57.9 L138.8 59.4 L138.2 59.5 L137.5 59.6 L137.7 61.6 L136.1 62.1 L135.1 63.1 L135.1 64.1 L133.7 65.1 L132.3 66.8 L131.6 68.5 L131.5 71.2 L131.3 72.5 L130.2 74.3 L130.3 76.5 L129.7 78.6 L129.5 81.4 L130.0 84.3 L129.2 85.9 L128.8 88.2 L128.0 90.3 L127.5 91.7 L127.6 93.7 L127.0 96.1 L125.8 97.8 L124.7 98.5 L122.7 100.7 L120.8 103.7 L119.0 105.9 L118.1 108.5 L117.6 109.5 L115.1 111.9 L114.8 113.3 L113.8 114.8 L112.8 116.0 Z" fill="#141311" opacity="1.0"/><path d="M122.5 116.5 L123.2 116.0 L124.1 115.9 L126.3 113.4 L126.7 111.6 L129.7 111.0 L131.2 108.9 L133.5 105.8 L134.3 104.8 L137.1 101.6 L137.6 100.8 L139.8 97.6 L140.7 95.6 L142.1 94.0 L142.3 92.0 L142.5 89.8 L142.2 88.1 L142.5 85.2 L143.2 84.0 L141.8 81.3 L141.8 78.9 L142.5 77.2 L143.2 75.8 L142.4 74.7 L142.5 74.1 L140.2 73.9 L139.6 74.5 L140.1 75.7 L139.4 77.1 L138.4 78.7 L137.9 81.1 L138.6 83.7 L137.3 84.7 L137.4 87.4 L137.4 88.8 L136.9 90.6 L136.7 92.1 L135.2 93.0 L134.3 94.4 L132.3 97.2 L132.7 98.3 L129.6 101.0 L129.6 102.6 L127.1 105.4 L126.1 107.8 L123.8 109.0 L122.9 110.3 L121.4 113.5 L120.3 113.5 L120.5 114.8 Z" fill="#141311" opacity="0.85"/><path d="M114.6 116.0 L112.3 116.4 L111.7 119.1 L109.2 122.7 L107.8 125.3 L106.8 129.7 L104.8 134.3 L102.5 135.8 L99.7 140.9 L97.9 143.9 L96.0 145.1 L94.5 147.5 L92.3 147.6 L92.1 148.5 L89.8 147.2 L88.1 147.4 L86.9 144.8 L83.8 144.3 L81.2 142.0 L78.9 139.9 L77.0 137.5 L74.5 135.8 L73.5 135.4 L69.7 132.9 L67.9 132.5 L66.1 131.9 L64.3 133.1 L62.8 132.5 L60.8 134.2 L61.0 135.1 L59.2 136.7 L59.4 137.4 L58.2 139.7 L57.6 140.4 L57.1 140.8 L56.9 140.8 L57.3 142.7 L58.8 144.0 L58.6 142.2 L59.5 142.4 L60.3 142.0 L60.9 141.4 L62.3 139.4 L62.4 139.1 L64.1 138.0 L63.5 137.7 L64.8 136.3 L65.5 137.5 L66.2 136.1 L66.6 137.6 L67.5 137.0 L70.6 139.3 L71.3 139.5 L73.5 141.5 L74.8 144.4 L77.3 146.5 L80.0 149.1 L83.8 149.5 L85.7 152.1 L88.0 153.0 L92.0 154.8 L94.2 152.9 L98.4 152.8 L99.9 149.1 L102.2 147.3 L105.0 144.6 L108.3 139.5 L109.7 137.2 L113.1 133.2 L113.7 128.5 L115.4 126.1 L117.8 122.5 L118.2 119.9 L120.5 119.7 Z" fill="#141311" opacity="1.0"/><path d="M115.6 120.8 L117.7 121.5 L119.6 122.2 L123.6 124.4 L126.5 125.0 L130.0 128.3 L133.1 129.5 L137.8 130.2 L141.4 132.6 L144.1 135.3 L147.0 137.2 L150.2 139.7 L152.2 141.3 L153.3 144.9 L154.0 147.2 L153.5 150.4 L155.6 153.6 L155.6 158.0 L156.5 161.5 L156.3 165.1 L156.1 168.3 L156.9 172.9 L155.7 176.3 L156.5 178.5 L157.6 181.0 L158.7 183.3 L159.4 184.6 L160.6 186.1 L163.0 186.0 L163.8 187.0 L166.0 186.4 L168.0 187.6 L169.3 186.7 L169.4 187.8 L170.1 186.9 L171.6 187.2 L171.5 186.8 L172.0 185.1 L171.9 185.3 L170.2 184.9 L169.4 185.6 L169.3 184.4 L168.2 184.9 L166.4 183.7 L164.5 184.4 L164.2 183.5 L162.7 183.3 L162.1 182.2 L161.7 181.4 L160.8 179.7 L160.5 177.6 L160.1 175.8 L161.1 172.6 L159.8 168.2 L160.3 165.0 L160.8 161.3 L159.7 157.7 L160.0 153.1 L158.5 149.4 L158.8 145.8 L157.7 142.9 L156.2 138.6 L154.0 136.2 L150.4 133.2 L146.9 131.4 L144.3 127.9 L140.5 125.4 L135.7 124.6 L132.7 122.8 L129.2 119.4 L126.5 118.4 L122.7 116.0 L120.9 115.4 L119.2 114.5 Z" fill="#141311" opacity="0.9"/><path d="M134.5 71.1 L134.9 73.4 L137.1 76.0 L138.1 78.9 L139.4 82.0 L141.5 85.2 L142.6 88.5 L143.7 92.1 L145.7 95.2 L146.5 97.0 L148.7 99.4 L149.9 101.7 L152.3 102.4 L155.2 102.9 L156.9 103.3 L158.8 100.9 L160.0 99.5 L161.8 96.7 L162.7 94.8 L165.1 92.4 L165.0 89.2 L166.2 87.5 L166.4 84.7 L167.2 83.0 L168.4 82.6 L166.9 81.6 L165.5 82.0 L164.2 83.5 L163.6 86.2 L162.2 87.8 L162.1 90.8 L159.9 93.1 L158.6 94.7 L156.9 97.1 L156.0 98.2 L154.3 99.3 L154.4 98.5 L153.7 98.6 L152.7 98.6 L152.3 96.7 L150.2 94.7 L149.6 93.2 L148.0 90.0 L147.1 86.3 L145.7 83.4 L144.2 79.9 L142.8 76.9 L141.6 74.1 L139.0 71.5 L139.0 68.9 Z" fill="#141311" opacity="1.0"/><path d="M134.7 68.0 L133.8 70.0 L131.8 70.6 L128.0 70.9 L126.4 72.8 L122.7 76.0 L120.8 77.9 L117.8 78.6 L113.9 80.6 L110.8 83.8 L109.0 85.6 L107.1 87.7 L105.8 90.3 L103.5 91.4 L101.1 93.9 L100.0 95.7 L98.9 99.1 L99.8 101.0 L97.6 103.3 L97.6 106.1 L97.7 107.3 L97.4 109.7 L97.5 111.5 L96.1 111.2 L95.4 113.4 L96.8 113.9 L97.9 111.8 L99.3 112.0 L99.7 110.3 L100.2 108.0 L100.0 106.8 L100.2 104.2 L102.5 102.0 L101.8 100.4 L103.0 97.2 L103.9 95.6 L106.4 93.5 L108.3 92.5 L109.8 90.6 L111.7 88.9 L113.3 87.0 L116.3 84.0 L119.9 81.8 L123.2 81.5 L125.1 79.7 L128.7 76.4 L130.4 74.8 L133.9 74.0 L136.0 73.4 L137.4 72.0 Z" fill="#141311" opacity="0.8"/><path d="M158.8 42.5 L158.8 43.3 L158.7 44.5 L158.6 45.8 L158.3 47.0 L157.8 48.1 L157.3 49.2 L156.6 50.2 L155.7 50.9 L154.7 51.2 L153.4 51.2 L152.2 51.1 L151.0 51.1 L149.9 51.5 L148.8 52.0 L147.7 52.4 L146.7 52.6 L145.6 52.4 L144.5 51.9 L143.5 51.3 L142.6 50.6 L141.8 49.7 L141.1 48.8 L140.6 47.7 L140.3 46.7 L140.3 45.7 L140.6 44.7 L140.9 43.6 L141.0 42.5 L140.6 41.3 L140.0 40.1 L139.4 38.9 L139.3 37.8 L139.8 37.0 L140.8 36.2 L141.9 35.5 L143.0 34.9 L143.9 34.4 L144.9 34.0 L145.9 33.7 L146.9 33.4 L148.0 32.9 L149.2 32.4 L150.4 32.0 L151.4 32.1 L152.2 32.7 L152.9 33.8 L153.5 35.0 L154.1 36.1 L154.6 36.9 L155.1 37.6 L155.6 38.3 L156.1 39.1 L156.8 40.0 L157.6 41.0 L158.3 41.9 L158.8 42.5 Z" fill="#141311" opacity="1.0"/></g></g></svg>